<?xml version="1.0" encoding="UTF-8" standalone="no"?>
<!-- Created with Inkscape (http://www.inkscape.org/) -->

<svg
   version="1.1"
   id="svg55"
   width="1024"
   height="1024"
   viewBox="0 0 1024 1024"
   sodipodi:docname="icon.svg"
   inkscape:export-filename="/home/jorge@grazper.net/Documents/scaleGuru/assets/icon.png"
   inkscape:export-xdpi="96"
   inkscape:export-ydpi="96"
   inkscape:version="1.1.2 (0a00cf5339, 2022-02-04)"
   xmlns:inkscape="http://www.inkscape.org/namespaces/inkscape"
   xmlns:sodipodi="http://sodipodi.sourceforge.net/DTD/sodipodi-0.dtd"
   xmlns="http://www.w3.org/2000/svg"
   xmlns:svg="http://www.w3.org/2000/svg">
  <sodipodi:namedview
     id="namedview75"
     pagecolor="#ffffff"
     bordercolor="#666666"
     borderopacity="1.0"
     inkscape:pageshadow="2"
     inkscape:pageopacity="0.0"
     inkscape:pagecheckerboard="0"
     showgrid="false"
     inkscape:zoom="0.65186406"
     inkscape:cx="381.21445"
     inkscape:cy="381.98148"
     inkscape:window-width="3832"
     inkscape:window-height="2099"
     inkscape:window-x="3840"
     inkscape:window-y="26"
     inkscape:window-maximized="1"
     inkscape:current-layer="g61" />
  <defs
     id="defs59">
    <filter
       style="color-interpolation-filters:sRGB;"
       id="filter147"
       x="0"
       y="0"
       width="1"
       height="1">
      <feColorMatrix
         values="0.21 0.72 0.072 0 0 0.21 0.72 0.072 0 0 0.21 0.72 0.072 0 0 0 0 0 1 0 "
         id="feColorMatrix145"
         result="fbSourceGraphic" />
      <feColorMatrix
         result="fbSourceGraphicAlpha"
         in="fbSourceGraphic"
         values="0 0 0 -1 0 0 0 0 -1 0 0 0 0 -1 0 0 0 0 1 0"
         id="feColorMatrix167" />
      <feColorMatrix
         id="feColorMatrix169"
         values="0.21 0.72 0.072 0 0 0.21 0.72 0.072 0 0 0.21 0.72 0.072 0 0 0 0 0 1 0 "
         in="fbSourceGraphic"
         result="fbSourceGraphic" />
      <feColorMatrix
         result="fbSourceGraphicAlpha"
         in="fbSourceGraphic"
         values="0 0 0 -1 0 0 0 0 -1 0 0 0 0 -1 0 0 0 0 1 0"
         id="feColorMatrix189" />
      <feColorMatrix
         id="feColorMatrix191"
         values="0.21 0.72 0.072 0 0 0.21 0.72 0.072 0 0 0.21 0.72 0.072 0 0 0 0 0 1 0 "
         in="fbSourceGraphic"
         result="fbSourceGraphic" />
      <feColorMatrix
         result="fbSourceGraphicAlpha"
         in="fbSourceGraphic"
         values="0 0 0 -1 0 0 0 0 -1 0 0 0 0 -1 0 0 0 0 1 0"
         id="feColorMatrix211" />
      <feColorMatrix
         id="feColorMatrix213"
         values="0.21 0.72 0.072 0 0 0.21 0.72 0.072 0 0 0.21 0.72 0.072 0 0 0 0 0 1 0 "
         in="fbSourceGraphic" />
    </filter>
  </defs>
  <g
     id="g61">
    <path
       style="fill:#c7e1e2;stroke:none;stroke-width:1px;stroke-linecap:butt;stroke-linejoin:miter;stroke-opacity:1;fill-opacity:1"
       d="m 483.83945,475.41396 c 0,0 20.50243,-4.08284 21.45692,-4.46951 0.95449,-0.38667 3.04478,42.67647 3.04478,42.67647 l -4.79429,0.9593 -14,2.4827 c 0,0 -12.99077,-10.7693 -13.24273,-23.12122 -0.60401,-12.90509 -1.92656,-11.02385 7.53532,-18.52774 z"
       id="path59208" />
    <path
       style="fill:#01c0f6;fill-opacity:1"
       d="m 414.5377,454.84339 16.66479,-24.99287 2.08853,-2.08853 c 2.50465,-2.50465 5.85892,-9.60426 5.88951,-12.46569 0.0121,-1.12982 -1.29419,-4.12958 -2.90282,-6.66612 l -2.92479,-4.61191 3.80305,-2.63551 3.80305,-2.63551 6.09019,2.05163 c 13.21604,1.12434 9.37663,6.24522 11.08439,15.05166 l 0.66992,5.25 c 0.36845,2.8875 -11.20708,35.89671 -11.09818,36.03429 0.67817,0.85673 -22.10057,12.59666 -12.20481,11.85759 23.15488,-4.13627 0.23057,8.36865 -27.26658,16.50042 -2.00057,-10.00462 2.71219,-20.24452 6.30375,-30.64945 z m -103.83521,122.2923 c -4.67628,-1.1291 -24.58681,-7.7578 -31.5,-10.4872 -18.10838,-7.1494 -42.50074,-21.58314 -54.94655,-32.51356 -7.65947,-6.7268 -19.74739,-21.6186 -24.99273,-30.7898 -10.76144,-18.8158 -14.59914,-35.44048 -13.734,-59.49461 1.38385,-38.47575 15.17745,-72.03237 44.83945,-109.08394 7.5075,-9.37781 27.31,-29.91606 28.84437,-29.91606 0.33808,0 1.63597,2.33895 2.88422,5.19766 4.51166,10.33258 31.80116,55.47593 43.62954,72.17369 18.72418,20.56329 12.56185,17.54708 17.76925,37.26386 -7.18209,10.72136 -7.68852,11.23201 -13.62644,13.73995 -10.77729,4.55191 -20.47713,7.48763 -28.72381,8.69346 -11.31742,1.65482 -30.80206,0.73498 -38.68613,-1.82632 -3.43356,-1.11546 -6.01223,-1.655 -5.73039,-1.19896 0.94117,1.52284 14.06614,9.85326 18.54851,11.77274 4.99123,2.13739 15.56925,4.18392 21.62563,4.18392 8.04752,0 21.38769,-3.05208 30.48737,-6.97517 5.06136,-2.18207 9.28975,-3.86782 9.39643,-3.74612 0.10667,0.12171 0.52081,30.25879 0.92031,66.9713 l 0.72636,66.75006 -2.86569,-0.116 c -1.57614,-0.064 -3.7657,-0.3333 -4.8657,-0.5989 z m 59.46657,-225.21154 c 1.12906,-4.6345 2.22873,-8.60226 2.4437,-8.81723 0.79716,-0.79717 11.14457,5.11389 18.00498,10.28551 6.20879,4.68041 12.47021,11.0649 15.0222,15.31746 0.54664,0.9109 -0.13326,2.18249 -2.06084,3.85433 -3.48957,3.0266 -11.00587,8.2863 -11.84141,8.2863 -74.57163,46.53356 -35.9955,29.09482 -21.56863,-28.92637 z"
       id="path443" />
    <path
       style="fill:#05549e;fill-opacity:1"
       d="m 225.36593,685.4612 c 2.81625,-47.585 8.59377,-125.9299 9.34184,-126.6779 0.33896,-0.339 4.33759,1.6546 8.88585,4.4301 4.54826,2.7755 10.74456,6.2476 13.76956,7.7157 16.77368,8.98146 34.68203,15.73381 50.62695,19.4832 17.04753,4.66377 31.18584,8.2008 43.92703,11.91918 6.06757,1.8179 9.9562,5.23104 15.71203,-0.69136 12.61504,-10.64186 13.60725,-32.82779 13.42566,-40.84322 l -0.19167,-4.8357 6.5,-3.2264 c 3.575,-1.7745 6.78375,-3.237 7.13055,-3.25 0.3468,-0.013 0.93632,4.8139 1.31003,10.7264 0.37372,5.9125 -0.51728,27.01271 0.83325,46.26271 2.63587,37.5706 2.25907,68.82124 3.94482,96.84034 0.57908,9.625 0.17269,20.34695 0.42968,23.64695 -61.13335,-10.72447 -179.98486,20.41503 -175.64558,-41.5 z m 122.49725,-95.9244 c -6.54575,-2.9984 -12.31314,-7.7894 -14.47284,-12.0228 -1.98153,-3.8841 -2.02547,-5.5559 -1.95197,-74.26338 l 0.0752,-70.28984 29.51855,-19.5 c 16.2352,-10.725 38.13887,-25.52517 48.67481,-32.88927 10.53594,-7.3641 60.78126,-41.0949 111.65624,-74.95734 50.875,-33.86243 96.2403,-64.21655 100.8118,-67.45361 8.9017,-6.30326 11.9614,-6.86062 14.2444,-2.59481 2.0477,3.82617 0.2652,6.28885 -9.772,13.50074 -18.6327,13.38796 -128.9394,94.26875 -162.28418,118.99253 -9.625,7.13654 -24.1375,17.59357 -32.25,23.23785 -8.1125,5.64428 -14.75,10.53452 -14.75,10.86719 0,0.33268 1.77257,2.12212 3.93905,3.97655 0.82727,34.06039 1.24704,35.13739 -0.69332,41.64133 0.65729,2.0756 -2.91762,5.0978 -3.60764,6.5284 -2.05561,4.33189 -8.12555,11.73248 -6.05514,10.93798 4.64702,-3.44992 11.9033,-4.74832 11.80442,-6.41027 0.79018,-0.46503 1.04676,-1.53123 1.76282,-1.96187 8.3387,-5.10267 15.54452,-15.30664 18.31177,-25.9308 1.87685,-7.20573 1.99426,-20.2898 0.24267,-27.04237 l -1.29533,-4.99363 5.54533,1.94334 c 6.87292,2.40859 26.90042,2.5186 49.04535,0.26941 12.2211,-1.24126 15.1132,-1.26197 18.4016,-0.13177 3.6466,1.2533 4.106,1.18506 7.0284,-1.04401 5.9838,-4.56405 11.6034,-6.44024 19.3598,-6.46361 7.6761,-0.0231 11.2862,-1.30463 18.1544,-6.44445 4.376,-3.27476 7.5374,-3.29822 9.6516,-0.0716 2.3698,3.6168 0.4744,7.42519 -6.2945,12.64735 -5.1005,3.93502 -5.3592,4.33134 -3.6457,5.5852 1.0144,0.7423 4.2465,2.04826 7.1824,2.90214 6.7279,1.95673 11.1975,0.96726 20.9004,-4.62688 3.8289,-2.20754 7.7265,-4.01371 8.6613,-4.01371 3.1629,0 7.361,2.91055 8.0273,5.56539 0.8417,3.3534 -3.1982,8.69705 -18.1325,23.98428 -18.9933,19.4422 -22.9873,21.71 -42.2945,24.01501 -17.3598,2.07252 -16.1579,2.36266 -15.8023,-3.81468 l 0.3023,-5.25 8.6936,-0.66265 c 16.0882,-1.22628 25.5142,-5.68898 37.079,-17.55505 l 4.7726,-4.89696 -7.3396,-0.0356 c -7.9155,-0.0383 -15.6608,-2.78996 -22.4679,-7.98203 -3.2036,-2.4435 -3.2802,-2.65401 -1.7922,-4.925 0.855,-1.30482 1.5544,-2.61323 1.5544,-2.90758 0,-1.09243 -13.5793,-0.46085 -15.6857,0.72956 -1.2022,0.67939 -4.6855,2.94398 -7.7405,5.03242 l -5.5547,3.79716 -0.2595,48.68866 -0.57581,47.92578 -6.86685,1.5499 -7.3238,1.19314 0.24786,-50.25718 -0.2591,-51.47075 -6.2409,0.5902 c -3.4325,0.32461 -13.83007,1.14944 -23.10569,1.83297 l -16.86478,1.24276 0.78319,5.5551 c 0.43075,3.05531 0.76598,7.1301 0.74495,9.0551 l -0.0382,3.5 1.01448,-3.25 c 0.7364,-2.35912 1.5916,-3.23073 3.11983,-3.17971 7.59761,-0.0352 15.45203,-1.29838 22.34702,-0.88066 2.61495,0.21691 3.8416,0.83735 4.0733,2.06037 0.0486,9.28807 -1.45413,23.32409 -1.34563,46.01396 -0.5219,19.12567 -0.53591,39.10476 0.71432,42.33822 -3.1499,1.2087 -33.73664,1.38118 -42.71349,-0.0748 -16.95761,-2.75041 -38.78654,-10.63198 -48.39414,-17.47319 -1.58663,-1.12978 -3.15281,-2.05415 -3.48041,-2.05415 -0.3276,0 -0.59738,8.2125 -0.59952,18.25004 l -0.004,18.25 -15.37619,7.7431 -15.37619,7.7431 -0.70968,10.412 c -0.39032,5.7265 -0.39196,13.3787 -0.004,17.0049 0.56287,5.256 0.37829,7.0932 -0.91024,9.0597 -3.11749,4.758 -8.57029,6.1536 -14.11629,3.6132 z m 18.51883,-114.982 c 7.98535,-1.61545 17.55251,-4.07906 21.26035,-5.47468 13.01495,-4.89882 21.21387,-12.58097 24.74178,-23.18231 1.15045,-3.45712 2.77426,-6.85212 3.60847,-7.54445 0.83421,-0.69233 2.43348,-3.05574 3.55394,-5.25202 2.4993,-4.89903 2.08498,-12.46477 -0.90166,-16.46505 -2.6949,-3.60953 -4.5583,-3.36696 -5.39043,0.70169 -0.95942,4.69105 -3.63387,8.00392 -9.96405,12.34259 -7.23263,4.95721 -11.65159,5.83884 -14.10144,2.8134 -2.67265,-3.30059 -2.24542,-5.58805 1.45102,-7.76901 8.7574,-5.16699 14.27459,-12.21904 13.12938,-16.78193 -1.35169,-5.38554 -6.90907,-5.58174 -13.27593,-0.46867 -1.99664,1.60345 -8.13026,5.30593 -13.63026,8.22774 -9.77328,5.19193 -10.12841,5.50589 -15.66365,13.84746 -3.115,4.69429 -7.2438,9.61781 -9.17509,10.94116 -1.9313,1.32335 -3.65766,3.32048 -3.83636,4.43807 -0.17869,1.1176 -0.18043,9.13967 -0.004,17.82683 0.2896,14.24773 0.48549,15.743 2,15.26559 0.92342,-0.29108 8.21242,-1.85097 16.19778,-3.46641 z m -58.51883,100.8967 c -23.56497,-6.1883 -47.64011,-16.9409 -66.9374,-29.8959 -40.52744,-27.2076 -56.80923,-65.05145 -52.13892,-110.39714 1.20717,-39.2822 20.22088,-72.84398 33.29289,-89.51849 5.21386,-7.66006 15.92073,-20.06742 15.72968,-19.48407 -1.91128,5.83568 -3.34333,7.21369 -4.69611,11.961 -1.54888,5.43549 -3.11856,12.21492 -4.74142,18.32175 -1.65762,8.44527 -3.61504,15.81054 -4.97229,36.48748 -0.35776,1.92004 -0.0224,21.16606 0.46233,26.53505 1.19142,13.19557 9.22302,37.06216 15.81646,47 6.40622,9.65566 14.3742,18.09486 22.94968,24.3069 11.14991,8.07696 30.81983,14.80591 47.73503,16.32984 3.575,0.32209 6.58399,0.65707 6.68666,0.74442 0.28468,0.24223 0.60909,40.32516 0.45216,55.86886 -0.1041,10.3105 -0.4515,13.7285 -1.38882,13.6643 -0.6875,-0.047 -4.4,-0.9129 -8.25,-1.924 z M 271.55509,432.21118 c -1.69776,-5.0875 -3.57409,-11.14861 -4.16961,-13.46914 -3.0684,-11.95639 -4.9456,-39.83997 -3.44414,-51.15856 l 0.67023,-5.0524 6.17254,13.21505 c 7.24439,15.50983 14.95695,27.40679 24.26273,37.42629 l 3.18367,3.42785 8.31633,-12.31955 c 4.57399,-6.77575 10.05389,-15.17397 12.17755,-18.66272 l 3.86122,-6.34317 -3.13161,-4.15683 c -12.27479,-16.29324 -49.09082,-76.3939 -49.09082,-80.13874 0,-0.59268 3.41582,-4.5605 7.5907,-8.81739 l 7.5907,-7.73978 1.73094,2.26955 c 0.95202,1.24824 3.46709,5.19454 5.58903,8.76954 6.49198,10.9375 26.28683,40.90557 34.27258,51.88637 8.90098,12.23928 8.40484,12.37885 13.70455,-3.85522 1.89088,-5.79213 3.91757,-10.41505 4.50376,-10.27314 2.4501,0.59312 15.01774,9.63844 15.01774,10.80873 0,3.24937 -7.29355,26.05447 -11.49222,35.93326 -6.70252,15.76995 -10.67944,22.76198 -25.93164,45.59166 l -7.07614,10.59165 -10.5,4.16882 c -10.54574,4.18699 -21.8184,7.09817 -27.61062,7.13051 -3.03748,0.017 -3.1832,-0.20013 -6.19747,-9.23264 z m 120.29297,-55 c -2.42599,-9.86668 -5.20223,-23.32584 -4.88136,-23.66477 1.09193,-1.15336 16.72157,17.57974 15.84743,18.99413 -0.63508,1.02759 -9.03282,6.92064 -9.86207,6.92064 -0.30293,0 -0.79973,-1.0125 -1.104,-2.25 z"
       id="path423" />
    <g
       id="g46443"
       transform="translate(-56.856445,807.85486)" />
    <path
       style="fill:#011b32;fill-opacity:1"
       d="m 205.85122,791.3686 c -8.67813,-5.29139 -9.48607,-16.1652 -1.70848,-22.99402 2.95612,-2.5955 4.27932,-3.04998 8.87993,-3.04998 2.9734,0 5.64004,-0.37839 5.92587,-0.84086 0.58273,-0.94289 3.93122,-46.34729 5.61659,-76.15914 0.60632,-10.725 2.21267,-35.02115 3.56967,-53.99144 1.357,-18.97029 3.11313,-43.66607 3.90252,-54.87951 0.78939,-11.21344 1.64822,-20.60103 1.90851,-20.86133 0.26029,-0.26029 3.62003,1.47667 7.46608,3.8599 6.07564,3.76481 6.9416,4.66363 6.60231,6.85277 -1.81661,11.72067 -2.90659,53.92119 -1.92474,74.51961 l 0.81033,17 1.19963,-12.5 c 2.31343,-24.10583 3.05224,-30.15035 7.08924,-58 1.39521,-9.625 2.70072,-17.66664 2.90112,-17.87031 0.2004,-0.20367 5.34689,1.84596 11.43663,4.55473 l 11.07226,4.92504 0.3876,19.44527 c -1.75604,24.5817 1.72686,65.19719 3.87601,76.27607 2.05406,12.2546 5.9944,37.81263 15.48197,39.042 14.80734,-3.76234 12.21242,-75.72494 12.66522,-85.37294 0.29138,-6.325 0.80963,-17.575 1.15166,-25 0.34203,-7.425 0.74381,-13.63756 0.89284,-13.80569 0.14904,-0.16812 4.3052,0.64144 9.23593,1.79904 l 8.96496,2.10472 0.66182,15.20097 c 1.12442,25.82635 1.86873,37.44305 1.95663,38.64086 0,0 1.15433,19.42317 1.94335,28.68636 0.49089,3.5953 1.85109,30.72001 10.18036,31.73578 3.32646,-1.18297 6.1583,-8.96225 7.44477,-18.57606 1.49916,-8.60169 2.07574,-38.67758 2.62825,-59.28597 0.1584,-9.35 0.3321,-19.25 0.3861,-22 0.097,-4.95168 0.1414,-5.01777 4.5683,-6.83826 2.4586,-1.01104 5.7937,-3.34569 7.4114,-5.18811 l 2.9412,-3.34985 1.0246,4.68811 c 1.053,4.81793 1.7091,8.70751 2.6461,15.68811 0.2953,2.2 0.7518,5.35 1.0144,7 1.0194,6.40433 1.7506,12.24847 3.421,27.34057 l 1.7331,15.65943 0.7932,-9.86916 c 0.8501,-10.57883 0.02,-51.12579 -1.4658,-71.63084 -0.4983,-6.875 -1.1679,-16.10778 -1.488,-20.5173 l -0.5821,-8.0173 6.5556,-3.2327 c 3.6056,-1.77798 6.7111,-3.2327 6.9012,-3.2327 0.1901,0 0.6572,5.7375 1.038,12.75 0.3808,7.0125 2.0077,31.2 3.6153,53.75 1.6076,22.55 3.615,52.475 4.461,66.5 2.1654,35.90044 4.4012,69.40277 5.122,76.75 l 0.6132,6.25 h 214.4332 c 235.2466,0 217.7303,-0.46503 222.2631,5.90075 4.5018,6.32212 3.518,13.74329 -2.5252,19.04927 l -3.4738,3.05011 -315.2152,-0.004 c -310.67578,-0.004 -315.26119,-0.0318 -318.41084,-1.95226 z M 527.13241,677.75214 c -6.82458,-2.02237 -10.6277,-4.6288 -13.5398,-9.59797 -2.2515,-3.84195 -2.5499,-5.31962 -2.1961,-10.87578 0.3373,-5.29841 0.9406,-7.09613 3.4286,-10.21695 5.2641,-6.60313 13.0813,-9.01988 22.6253,-6.99477 l 3.7346,0.79243 0.2654,-28.76334 0.2654,-28.76334 2.4907,-1.24127 c 2.00942,-1.00142 2.8788,-0.98381 4.5,0.0913 1.9391,1.286 2.0271,2.67471 2.5177,39.71219 0.2797,21.10877 0.1426,39.85438 -0.3045,41.65691 -2.2304,8.99132 -10.46076,14.78732 -23.7873,14.20056 z m 66.2103,-8.43721 c -8.4322,-2.70405 -13.4468,-9.65788 -13.455,-18.65844 -0.01,-6.82274 2.4648,-12.05828 7.6857,-16.28393 3.0426,-2.46259 4.8503,-3.08043 9.9655,-3.40615 4.2569,-0.27106 7.4716,0.11304 10.085,1.20498 2.1099,0.88157 4.0062,1.60286 4.214,1.60286 0.2079,0 0.3779,-16.2 0.3779,-36 0,-19.8 -0.3528,-36 -0.7841,-36 -0.4313,0 -3.10557,2.36243 -5.9428,5.25 l -5.1585,5.25 -0.3073,16.68043 c -0.27655,15.01118 -0.5136,16.9564 -2.3691,19.43821 -4.9598,6.63418 -11.6118,8.8164 -17.8504,5.85597 -4.4063,-2.0909 -6.5878,-5.90591 -6.5878,-11.52066 0,-7.50966 5.4221,-12.95395 12.9012,-12.95395 h 3.0988 v -19.41922 -19.41922 l 13.25,-11.99872 c 17.31988,-15.68426 18.6126,-16.68453 19.2879,-14.92465 0.2929,0.76318 0.4042,30.38431 0.2473,65.82471 -0.2823,63.78477 -0.307,64.47759 -2.4379,68.4371 -5.2206,9.70069 -16.1059,14.28419 -26.2204,11.04068 z M 341.95655,586.44146 c -3.50834,-2.22593 -7.11192,-5.50752 -8.5,-7.7405 l -2.40966,-3.87636 0.23334,-70.93191 0.23334,-70.93191 32.26669,-21.61139 c 17.7466,-11.88626 40.1416,-27.15574 49.7666,-33.93216 9.625,-6.77643 26.725,-18.42534 38,-25.88646 35.4846,-23.48158 166.2192,-110.68809 172.6229,-115.14812 5.2403,-3.64967 6.4263,-4.10209 8.2271,-3.13832 1.1573,0.61937 2.5965,2.04598 3.1982,3.17026 1.6071,3.00302 -0.5059,5.60692 -10.2217,12.59586 -7.8793,5.66787 -50.2795,36.66578 -104.9801,76.74873 -13.5594,9.93598 -35.3844,26.01181 -48.5,35.72407 -13.1155,9.71227 -31.0464,22.69162 -39.8464,28.84301 -8.8,6.15139 -16.225,11.42911 -16.5,11.72825 -0.275,0.29915 0.175,0.76907 1,1.04427 3.1085,1.03694 9.7769,9.12286 11.3634,13.77896 2.6975,7.9165 2.1749,15.12382 -1.6134,22.25155 -1.7875,3.36326 -5.1401,9.67853 -7.4502,14.03395 -2.3101,4.35541 -4.9298,8.64848 -5.8214,9.54015 -4.0765,4.07644 5.3458,-0.80085 12.5532,-6.49802 7.4487,-5.88781 9.446,-8.31705 13.4683,-16.38077 4.5519,-9.12545 6.1795,-19.56694 4.6515,-29.8406 -0.6005,-4.03733 -1.3655,-8.05392 -1.7001,-8.92575 -0.5552,-1.4468 -0.1868,-1.44687 4.2202,-8.4e-4 6.3558,2.08545 26.7196,2.22881 47.6722,0.33561 12.1681,-1.09945 16.808,-1.16823 20,-0.29645 3.894,1.06349 4.4215,0.947 8.3577,-1.84561 6.0293,-4.27767 11.531,-5.92636 19.7761,-5.92636 6.8825,0 7.5517,-0.21394 14.0774,-4.5 3.7682,-2.475 7.3652,-4.5 7.9932,-4.5 1.9271,0 4.4519,3.51703 4.4519,6.20138 0,2.47446 -5.9165,8.97365 -10.5087,11.54354 -2.8649,1.6033 -0.3787,3.94123 6.2362,5.86423 7.3439,2.13494 12.3671,1.23389 20.8486,-3.73982 7.6979,-4.51414 12.263,-5.22995 15.3776,-2.41122 3.8915,3.5217 2.7165,6.81393 -5.8174,16.30041 -10.8859,12.10113 -26.1787,26.69496 -30.0965,28.72092 -1.7969,0.92922 -5.082,2.3298 -7.3001,3.1124 -5.1385,1.81297 -28.8193,4.76602 -29.7259,3.70688 -0.3761,-0.4393 -0.4877,-2.93622 -0.248,-5.54872 l 0.4356,-4.75 6.6493,-0.0148 c 8.4693,-0.0188 18.3915,-2.35108 24.0097,-5.64353 2.413,-1.41415 8.0348,-5.78205 12.4928,-9.70644 l 8.1055,-7.13525 -8.9794,-0.50578 c -9.2963,-0.52364 -16.563,-3.13759 -22.411,-8.06157 -2.3823,-2.00591 -2.3964,-2.10723 -0.6934,-4.99007 l 1.7382,-2.94256 h -7.9799 c -7.6068,0 -8.1983,0.16663 -12.6477,3.56297 -2.5673,1.95963 -5.7517,4.05686 -7.0766,4.66051 l -2.4089,1.09755 v 48.76193 48.76194 l -3.25,1.04826 c -1.7875,0.57654 -5.1625,1.34396 -7.5,1.70536 l -4.25,0.6571 v -51.7348 c 0,-44.31964 -0.2038,-51.65657 -1.4223,-51.18901 -0.7822,0.30019 -11.3541,1.35387 -23.4929,2.34152 -21.1641,1.72197 -22.0448,1.87721 -21.4412,3.77919 0.3463,1.0909 0.6005,6.27286 0.565,11.51547 -0.1679,24.78832 -12.5688,42.83623 -35.0698,51.03965 l -7.4243,2.70677 7.6836,1.14279 c 9.982,1.48464 11.8298,1.44846 22.8112,-0.44661 12.6001,-2.17443 17.2274,-4.72699 33.0399,-18.22587 1.5897,-1.35708 1.5667,-0.96257 -0.2525,4.32508 -1.101,3.20009 -1.7738,6.04638 -1.4951,6.32507 0.2787,0.2787 2.7892,-0.0201 5.5788,-0.66407 2.7897,-0.64394 5.4879,-1.1708 5.9959,-1.1708 0.5361,0 0.9237,8.96632 0.9237,21.36916 v 21.36916 l -3.75,0.61983 c -6.6582,1.10053 -27.4726,0.64491 -37.75,-0.82633 -16.5655,-2.37142 -31.9477,-7.48648 -46.731,-15.53958 -3.1521,-1.71707 -6.0771,-3.65526 -6.5,-4.30709 -0.423,-0.65183 -0.994,7.36485 -1.269,17.81485 l -0.5,19 -14.5868,7.5 c -8.0228,4.125 -15.1103,7.86406 -15.75,8.30902 -0.8106,0.56382 -1.1632,6.22457 -1.1632,18.67742 v 17.8684 l -2.6348,2.07258 c -4.2522,3.34475 -9.7565,2.75697 -16.95551,-1.81056 z m 24.76391,-111.96025 c 21.0992,-4.46711 29.3296,-7.96781 37.1722,-15.8107 4.1313,-4.13152 5.9853,-7.19847 8.2757,-13.69007 0.7988,-2.26424 3.0686,-6.46336 5.0439,-9.33139 3.3066,-4.80106 3.5546,-5.6584 3.1273,-10.81099 -0.4767,-5.74825 -3.1321,-10.74303 -6.0133,-11.31072 -1.0691,-0.21065 -1.6979,0.88601 -2.1581,3.76407 -0.7877,4.92607 -5.7502,10.22861 -13.455,14.37708 -6.3053,3.39489 -9.3577,3.02251 -11.1743,-1.36323 -0.6936,-1.67464 -1.0881,-3.17097 -0.8766,-3.32518 0.2116,-0.15422 3.3609,-2.36885 6.9986,-4.9214 9.101,-6.38611 12.0264,-12.59375 7.886,-16.73408 -3.0304,-3.03044 -5.6927,-2.4609 -13.4306,2.87323 -3.8882,2.68028 -10.2194,6.45974 -14.0694,8.3988 -7.7531,3.90489 -9.5953,5.63214 -14.7699,13.84868 -1.9469,3.0914 -5.6076,7.34919 -8.135,9.46177 l -4.5951,3.84104 v 8.13462 c 0,4.47403 0.2952,12.29279 0.6559,17.37501 0.6179,8.70401 0.7775,9.21398 2.75,8.78527 1.1518,-0.25032 8.6972,-1.85314 16.7677,-3.56181 z m -60.67357,100.36125 c -22.42581,-5.94805 -46.6145,-16.75346 -65.42655,-29.22691 -19.78238,-13.11684 -37.72739,-33.22384 -46.06757,-51.61772 -12.35712,-27.25304 -12.72341,-59.60755 -1.08461,-95.80518 8.93303,-26.21709 23.12977,-45.59346 33.86239,-59.54599 5.76161,-7.04938 10.47623,-12.97718 10.39897,-12.37917 -0.0918,0.71069 -2.97772,8.29867 -7.19282,15.63734 -11.07396,19.28025 -11.66666,27.24773 -16.06638,40.40691 -6.85557,20.50441 -9.13621,33.84209 -9.2358,54.01286 -0.12184,24.67856 2.74834,35.54082 13.9048,52.62297 13.614,18.72252 38.53439,33.7886 58.54722,38.81528 23.87876,5.23421 36.51322,6.72056 37.94216,4.46363 0.53174,-0.83987 0.8937,7.919 0.90288,21.84812 0.008,12.7875 -0.32219,23.22861 -0.73469,23.20247 -0.4125,-0.0261 -4.8,-1.12171 -9.75,-2.43461 z m 333.47752,21.80344 c -6.8457,-1.92727 -10.0234,-11.71897 -5.7048,-17.57876 1.9289,-2.61733 6.4571,-5.45791 10.7862,-6.76635 1.8306,-0.55326 1.867,-1.95079 1.1567,-44.44014 -0.5338,-31.92832 -0.4263,-44.44288 0.3951,-45.97765 1.4234,-2.65964 6.1084,-2.81575 8.4032,-0.28001 1.4954,1.65235 1.6547,6.83676 1.6513,53.75 0,49.7004 -0.087,52.05795 -1.9523,55.11693 -3.3541,5.50098 -8.8907,7.82147 -14.7354,6.17598 z m 45.208,-10.23454 c -14.74951,-2.31679 -20.1492,-21.35228 -8.2294,-30.98616 3.1175,-2.51965 4.8858,-3.12856 10,-3.44353 5.2636,-0.32417 6.744,-0.0218 9.689,1.97877 6.9631,4.73008 11.1054,12.04259 8.7714,19.37948 -2.6007,8.17506 -9.5695,14.74611 -20.231,13.07144 z m 84.4868,-18.37516 c -5.2673,-0.98249 -15.1132,-6.28449 -19.7844,-10.65386 -7.2742,-6.80418 -13.1677,-19.15455 -13.2071,-27.67659 -0.041,-8.82985 6.6624,-19.50175 14.4881,-23.06584 8.2221,-3.74463 21.236,-1.22549 27.2023,5.26564 5.5773,6.06791 7.0124,17.69516 3.165,25.64284 -2.2989,4.74891 -8.6361,10.02686 -13.1173,10.92481 -3.6491,0.73121 -3.4675,1.58846 0.7638,3.60622 8.8606,4.22532 18.8676,2.6322 26.684,-4.24809 6.8726,-6.04945 9.1076,-12.07188 9.6109,-25.89705 0.2271,-6.23699 0.10662,-15.012 -0.2677,-19.5 l -0.6806,-8.16003 -7.1802,-0.11211 c -20.8215,-0.32511 -38.951,-9.87519 -50.232,-26.46083 -6.9507,-10.21918 -9.5218,-17.94175 -10.1753,-30.56206 -0.6454,-12.46489 1.2219,-21.87322 6.3255,-31.87033 3.3239,-6.51078 10.7717,-16.34312 15.9031,-20.99467 6.3669,-5.7715 19.9476,-16.84293 26.9985,-22.01005 11.5495,-8.46386 24.8317,-19.85837 28.4002,-24.36387 4.7744,-6.0282 8.0789,-13.963 8.0901,-19.42573 0.029,-14.46515 -12.0146,-15.93427 -18.0386,-2.20034 -0.965,2.2 -2.0662,6.36338 -2.4472,9.25194 -0.6807,5.16121 -0.8247,5.34711 -8.3317,10.7609 -8.9886,6.48226 -9.0043,6.471 -9.0851,-6.51284 -0.1531,-24.57791 12.1218,-46.25931 27.4946,-48.5646 3.6367,-0.54537 5.4111,-0.1841 9.9125,2.01826 15.7423,7.70197 23.4368,31.85418 17.5193,54.99127 -3.6529,14.28266 -11.48364,26.22664 -24.869,37.93133 l -4.355,3.80818 0.7073,11.77154 0.7073,11.77155 5.2039,1.16459 c 8.55679,1.91494 17.2321,6.61813 23.1816,12.56758 21.3223,21.32228 13.35352,57.58505 -15.6723,71.31893 l -7.8649,3.72136 0.6373,5 c 0.35051,2.74999 0.6761,12.875 0.7235,22.5 0.08,16.12885 -0.097,17.95305 -2.2477,23.28231 -7.515,18.61836 -26.1643,28.70988 -46.1627,24.97964 z m 34.3467,-93.01195 c 0,-1.5217 -1.0224,-12.42088 -1.901,-24.24084 -0.8786,-11.81996 -1.7454,-21.63885 -1.9263,-21.81976 -0.7719,-0.77189 -8.5076,3.97584 -10.402,6.38415 -2.3655,3.00729 -3.6131,8.32857 -2.7547,11.74904 0.3225,1.28465 2.149,4.31058 4.0591,6.72428 1.91,2.4137 3.3145,4.54677 3.1211,4.74015 -1.0216,1.02161 -9.1021,-2.57095 -12.6897,-5.64177 -14.5093,-12.41947 -8.34858,-37.15309 11.4955,-46.15085 l 6.2675,-2.84183 -0.685,-6.61816 c -0.37675,-3.63998 -0.9417,-6.8749 -1.2555,-7.1887 -0.7672,-0.7672 -17.8851,11.23587 -24.4807,17.16584 -6.6425,5.97214 -10.7751,11.94506 -13.2581,19.16192 -2.3288,6.76898 -2.5375,17.02428 -0.4851,23.84386 4.6245,15.36603 21.4116,27.2881 38.6216,27.42889 l 6.5768,0.0538 -0.3035,-2.75 z m 18.4679,-4.34755 c 15.7528,-11.58471 12.3135,-35.70242 -5.8335,-40.90691 -1.8436,-0.52873 -3.548,-0.76538 -3.7875,-0.52589 -0.4278,0.4278 1.3084,27.49986 2.4871,38.78035 0.3503,3.35181 1.0849,5.75 1.7614,5.75 0.6383,0 3.0559,-1.3939 5.3725,-3.09755 z m -145.7624,54.20135 c 1.55383,0 -0.994,-15.4892 -0.8165,-44.19967 0.2851,-46.10086 0.1375,-45.03036 6.0062,-43.55741 3.2136,0.80656 4.7547,4.94066 4.7547,12.75475 v 5.80301 l 10.4586,-6.70224 10.4586,-6.70224 0.2914,-11.89307 c 0.23478,-9.58224 0.6014,-12.08818 1.8866,-12.89725 2.0332,-1.27989 6.5076,-0.18712 7.2598,1.77303 0.3166,0.82499 0.6259,20.80912 0.6874,44.40917 0.1248,47.88008 0.1239,47.88723 -6.5767,50.6869 -5.6544,2.36256 -9.2559,1.83096 -13.0067,-1.91984 -5.4273,-5.42722 -5.7906,-10.85102 -1.0683,-15.94643 1.3414,-1.44739 3.7147,-2.91241 5.2741,-3.25559 1.5594,-0.34318 3.3977,-0.79726 4.0852,-1.00906 0.9398,-0.28951 1.25,-4.87522 1.25,-18.47549 0,-14.20936 -0.2681,-17.92801 -1.25,-17.33347 -4.7021,2.84735 -14.71876,9.63825 -17.0458,11.55651 l -2.7957,2.30459 0.023,25.5 c 0.0257,28.44244 -0.3119,30.2887 -5.6382,30.8084 -2.3439,0.22871 -5.93122,-1.7046 -4.2381,-1.7046 z M 274.06316,439.5746 c -3.17303,-7.9587 -6.63074,-19.05892 -7.95836,-25.54855 -2.04042,-9.97398 -3.69694,-36.40165 -2.77052,-44.20031 l 0.71261,-5.99886 4.99372,10.99886 c 2.74655,6.04937 8.00707,15.53268 11.69005,21.07402 6.59707,9.92584 15.23514,20.42484 16.80456,20.42484 0.86881,0 16.95229,-24.28758 21.57096,-32.57419 l 2.82818,-5.07418 -4.54699,-5.92582 c -8.00877,-10.43734 -25.77729,-38.34841 -36.97271,-58.07732 -5.97727,-10.53333 -10.86777,-19.54459 -10.86777,-20.02503 0,-0.48043 3.40905,-4.23725 7.57566,-8.34849 7.30707,-7.20995 7.62847,-7.40406 9.06503,-5.47497 0.81915,1.1 6.76263,10.325 13.20774,20.5 12.23054,19.30856 27.01927,41.02645 31.98512,46.97156 l 2.89974,3.47155 2.02452,-3.97155 c 1.11348,-2.18436 3.23748,-7.86403 4.72001,-12.62148 l 2.69545,-8.64993 7.9134,5.03684 c 4.3523,2.77026 7.9133,5.38924 7.9133,5.81995 0,2.02427 -7.1561,25.29885 -9.9006,32.20083 -6.0732,15.2729 -16.88197,34.48483 -29.70854,52.80502 l -5.29496,7.5628 -10.29794,4.10471 c -9.38958,3.74264 -22.80402,7.2697 -27.64878,7.2697 -1.06435,0 -2.24914,-0.7875 -2.63288,-1.75 z m 116.5213,-66.51907 c -0.6684,-3.42701 -1.8502,-8.68797 -2.6264,-11.69103 -0.7761,-3.00305 -1.4112,-5.90383 -1.4112,-6.44617 0,-1.41933 6.3073,4.90008 11.5463,11.56844 l 4.4909,5.7162 -4.2686,2.89063 c -2.3477,1.58986 -4.7742,3.18364 -5.3922,3.54175 -0.737,0.42705 -1.5418,-1.49308 -2.3388,-5.57982 z m 153.9662,-25.51305 c -450.374272,-104.3254 -225.18713,-52.1627 0,0 z m -175.5038,-18.12247 c -22.003,-8.38636 -34.20257,-16.39215 -44.7937,-29.3952 -7.66808,-9.41434 -13.70627,-24.65469 -13.70627,-34.59455 0,-2.25812 -0.3375,-4.11295 -0.75,-4.12186 -0.4125,-0.009 -4.44746,1.90359 -8.96658,4.25 -9.72319,5.04847 -10.38648,4.87047 -13.95914,-3.74595 -9.58157,-23.10843 -12.10419,-38.58932 -8.88217,-54.50831 2.41201,-11.91703 7.26959,-20.76592 16.51387,-30.08278 12.24194,-12.33804 26.77218,-17.89676 46.78133,-17.89676 11.09736,0 18.65736,1.63151 28.24816,6.09622 13.3856,6.23123 25.1726,18.10818 25.4026,25.5965 0.097,3.15549 -0.3584,3.92494 -3.3881,5.7263 -2.8501,1.69458 -5.1712,2.08099 -12.5,2.08099 -9.0656,0 -15.3555,-1.45884 -23.7471,-5.50773 l -3.747,-1.80795 0.747,4.15784 c 1.5191,8.45423 0.8163,14.84144 -2.2537,20.48197 -1.5915,2.92413 -3.7049,5.75078 -4.6964,6.28142 -1.6561,0.88633 -1.8022,2.81273 -1.7962,23.67963 0.01,24.77519 0.1338,25.39097 6.2002,30.16283 3.0742,2.41815 10.0121,5.05198 13.3077,5.05198 1.7798,0 2.3985,-0.72262 2.8979,-3.38481 0.8284,-4.41559 5.2357,-10.90443 9.5868,-14.11455 1.9029,-1.40397 6.5066,-3.46002 10.2304,-4.569 4.9243,-1.46652 6.7719,-2.48196 6.7758,-3.72398 0,-0.93921 -1.3976,-5.19515 -3.1124,-9.45765 l -3.1178,-7.75 h -11.2651 c -12.006,0 -14.3241,-0.85985 -13.0596,-4.84404 0.8364,-2.63512 3.2892,-3.12865 15.5495,-3.12865 13.8152,0 14.588,0.2642 17.0845,5.84074 4.3975,9.82267 7.0691,17.77049 7.0918,21.09756 0.028,4.08231 -3.8078,8.03438 -7.7978,8.03438 -3.8228,0 -6.3785,1.79103 -6.3785,4.47008 0,1.31985 -0.4748,3.64855 -1.0551,5.1749 -0.6558,1.72492 -1.0251,13.29216 -0.9758,30.5651 l 0.079,27.78992 -3.2742,-0.0466 c -1.8008,-0.0256 -7.7742,-1.76169 -13.2742,-3.85799 z m -47.13575,-79.47422 c 9.66123,-4.03672 11.92544,-16.79819 4.32834,-24.39529 -6.41856,-6.41856 -15.41448,-5.39023 -21.39087,2.44522 -5.61406,7.36041 -2.75509,17.40224 6.09938,21.42346 4.94034,2.24363 6.65646,2.32606 10.96315,0.52661 z"
       id="path391" />
  </g>
</svg>
