<?xml version="1.0" encoding="UTF-8" standalone="no"?>
<!-- Created with Inkscape (http://www.inkscape.org/) -->

<svg
   width="180mm"
   height="180mm"
   viewBox="0 0 180 180"
   version="1.1"
   id="svg1"
   inkscape:version="1.3.2 (091e20e, 2023-11-25, custom)"
   sodipodi:docname="logo a mano - v 4.svg"
   inkscape:export-filename="logo a mano - v 3 - plain.svg"
   inkscape:export-xdpi="96"
   inkscape:export-ydpi="96"
   xmlns:inkscape="http://www.inkscape.org/namespaces/inkscape"
   xmlns:sodipodi="http://sodipodi.sourceforge.net/DTD/sodipodi-0.dtd"
   xmlns="http://www.w3.org/2000/svg"
   xmlns:svg="http://www.w3.org/2000/svg">
  <sodipodi:namedview
     id="namedview1"
     pagecolor="#ffffff"
     bordercolor="#666666"
     borderopacity="1.0"
     inkscape:showpageshadow="2"
     inkscape:pageopacity="0.0"
     inkscape:pagecheckerboard="0"
     inkscape:deskcolor="#d1d1d1"
     inkscape:document-units="mm"
     inkscape:zoom="0.94221065"
     inkscape:cx="340.15748"
     inkscape:cy="340.15748"
     inkscape:window-width="1600"
     inkscape:window-height="837"
     inkscape:window-x="-8"
     inkscape:window-y="-8"
     inkscape:window-maximized="1"
     inkscape:current-layer="layer1" />
  <defs
     id="defs1" />
  <g
     inkscape:label="Capa 1"
     inkscape:groupmode="layer"
     id="layer1">
    <g
       id="g1">
      <g
         id="g5">
        <path
           style="fill:#04539c"
           d="M 56.4221 63.3204 C 54.6952 56.7394 54.8896 56.3725 58.0252 60.295 C 59.882 62.6177 59.8619 62.3948 58.3097 63.4527 C 56.738 64.5239 56.7379 64.5238 56.4221 63.3204 Z"
           id="path15-8-1-8-4" />
        <path
           style="fill:#04539c"
           d="M 32.4894 107.985 C -0.15335 99.0237 -7.6744 80.04 13.4953 53.0692 C 15.9442 49.9492 16.2349 49.7677 15.2628 51.9658 C 5.96314 72.994 15.2825 95.7201 34.1296 97.9739 L 36.7103 98.2413 L 36.5287 107.506 Z"
           id="path15-8-6-6" />
        <path
           style="fill:#04539c"
           d="M 11.8838 154.786 C 12.8606 140.926 13.4247 127.027 14.7475 113.194 C 14.9486 111.615 14.848 111.602 18.4961 113.667 C 24.5468 117.091 30.4065 119.377 36.8183 120.815 C 38.4918 121.19 40.9921 121.856 42.3745 122.294 C 43.757 122.733 45.6248 123.326 46.5252 123.611 C 50.5696 124.892 53.7326 120.355 53.747 113.251 L 53.752 110.993 L 55.461 110.15 C 57.5877 109.101 57.4274 108.716 57.7123 115.563 C 57.8443 118.735 58.3142 126.688 58.7565 133.237 C 59.1988 139.785 59.8646 149.786 60.2361 155.462 Z"
           id="path15-8-9-4" />
        <path
           style="fill:#04529a;fill-opacity:1;stroke:none"
           d="M 73.652 78.7063 C 73.6836 76.9442 77.59 77.0053 79.6776 77.0652 L 82.4526 77.1448 L 82.2222 90.2847 L 78.6528 90.5745 L 78.9672 88.3678 C 74.425 93.0458 69.3796 93.9259 62.0331 92.2325 C 66.5036 89.2233 71.65 89.6632 73.652 78.7063 Z"
           id="path15-7" />
      </g>
      <g
         id="g4">
        <path
           style="fill:#00bef5;fill-opacity:1;stroke:none"
           d="M 22.1097 45.9068 C 31.5641 62.0348 34.8083 66.1792 36.595 68.1914 L 31.4283 74.8182 C 27.9232 72.6553 25.6998 65.5617 22.7879 61.0259 C 23.3074 67.5189 23.3027 76.9783 27.3786 80.6604 C 24.137 81.1857 23.9326 82.0822 17.42 80.3498 C 15.0988 79.7323 14.9921 79.9 16.888 81.1856 C 22.4435 84.9525 28.0792 86.1227 36.3819 81.5751 C 37.3276 86.1126 36.8513 92.4865 36.6989 98.403 C 8.48493 98.9179 8.52043 63.0255 15.4638 51.0501 C 18.0023 46.6718 20.7844 44.3828 22.1097 45.9068 Z"
           id="path20-6-5" />
        <path
           style="fill:#00bef5;fill-opacity:1"
           d="M 45.0204 71.5033 C 45.0204 71.356 45.7272 69.8862 46.591 68.2371 C 48.5399 64.5167 49.8466 61.2893 50.7402 57.9895 C 51.1186 56.5923 51.5087 55.3012 51.607 55.1205 C 52.1063 54.2032 60.1016 60.4002 60.1016 61.7044 C 60.1016 62.3132 58.6031 63.3925 52.2887 67.3314 C 45.9442 71.2892 45.0204 71.8195 45.0204 71.5033 Z"
           id="path20-6" />
        <path
           style="fill:#00bef5;fill-opacity:1;stroke:none"
           d="M 61.2452 87.155 C 63.1381 82.0589 71.3711 75.7846 67.7814 70.9488 C 68.375 69.9922 69.3249 69.6455 70.146 69.9158 C 72.9404 83.5426 63.2528 86.4374 61.2452 87.155 Z"
           id="path20-6-8-6" />
      </g>
      <path
         style="fill:#001a31"
         d="M 33.511 173.59 C 4.8786 173.437 7.10023 173.606 6.08443 171.512 C 4.97177 169.218 6.50917 166.869 9.33213 166.549 C 10.2131 166.45 10.9793 166.236 11.0347 166.074 C 11.1538 165.727 12.0233 153.724 12.6085 144.349 C 13.1364 135.892 14.5487 115.757 14.7668 113.577 C 14.9563 111.685 14.888 111.697 17.1316 113.133 C 18.4412 113.97 18.5934 114.158 18.4449 114.749 C 17.8473 117.13 17.7014 139.172 18.2878 138.478 C 18.418 138.324 20.8537 116.172 21.3461 115.68 C 21.5375 115.488 26.7966 117.799 26.9197 118.128 C 27.3981 119.409 26.444 132.467 28.3659 144.084 C 30.9494 159.7 35.7648 155.416 35.7584 137.508 C 35.7574 133.289 36.2823 120.932 36.4662 120.735 C 38.2637 121.094 40.13 121.644 40.9792 121.87 L 41.1636 125.532 C 42.1944 145.999 42.8241 151.295 44.6361 151.99 C 46.6671 152.769 47.4093 148.024 47.8111 131.689 L 47.9924 124.32 C 51.9223 122.678 51.316 121.569 51.7497 122.023 C 52.1768 122.469 54.1914 139.718 54.3614 139.888 C 54.9776 140.504 54.9393 124.627 53.7012 111.177 C 54.8304 110.71 55.8674 109.9 57.061 109.605 C 57.2387 109.789 60.1125 156.107 60.9578 166.375 C 98.6011 167.281 136.641 165.474 174.243 166.918 C 178.947 167.958 177.282 171.499 174.931 173.85 C 127.791 173.775 80.6505 173.81 33.511 173.59 Z M 83.0159 149.623 C 77.7967 147.71 80.2091 139.012 85.6539 140.112 C 86.394 140.257 87.1389 140.376 87.8828 140.499 C 87.9481 136.096 87.8231 131.681 88.1076 127.283 L 88.2798 125.034 L 89.069 125.034 C 90.1988 125.034 91.0007 144.35 89.9827 147.044 C 89.0915 149.402 85.7702 150.632 83.0159 149.623 Z M 100.98 147.504 C 95.1234 144.45 99.3527 135.687 105.453 138.236 C 106.012 138.47 106.513 138.66 106.568 138.66 C 106.813 138.66 106.651 119.631 106.404 119.478 C 105.177 119.977 104.192 121.158 103.229 122.068 L 103.223 125.8 C 103.212 132.075 101.566 134.616 98.3839 133.27 C 95.1083 131.883 96.147 127.039 99.7233 127.023 L 100.583 127.019 L 100.583 116.814 C 103.293 114.58 105.464 112.55 108.777 109.556 C 109.019 109.337 109.132 139.175 108.809 142.554 C 108.404 146.789 104.429 149.302 100.981 147.504 Z M 124.652 131.186 C 119.585 128.626 122.033 121.71 127.885 122.049 L 129.952 122.169 L 129.952 114.978 C 129.952 109.371 129.999 106.791 130.299 100.551 C 133.245 97.9791 136.217 95.4415 139.344 93.0926 C 140.117 97.6935 139.506 113.838 139.381 114.1 C 138.817 115.289 136.283 115.722 135.141 114.825 C 133 113.14 133.619 110.15 136.209 109.664 C 137.3 109.459 137.325 109.328 137.42 103.272 C 137.505 97.8983 137.664 98.0435 134.619 100.713 L 132.333 102.717 L 132.333 115.405 C 132.333 125.524 132.26 128.269 131.972 128.958 C 130.944 131.419 127.305 132.526 124.652 131.186 Z M 112.769 127.697 C 111.229 126.057 111.882 123.981 114.341 122.7 L 115.532 122.079 L 115.532 110.328 C 115.532 103.864 115.628 98.4272 115.746 98.2453 C 115.998 97.8559 116.952 97.8171 117.516 98.1734 C 118.028 98.4971 118.274 124.614 117.781 126.304 C 117.213 128.249 114.101 129.114 112.769 127.697 Z M 45.1526 119.82 C 43.3143 119.135 41.9435 117.769 40.7835 116.249 L 40.8514 97.3768 L 40.9193 78.5051 C 95.6239 41.3967 119.983 25.0245 120.819 26.3007 C 122.349 28.6358 61.7365 70.1639 63.012 70.6088 C 67.3371 72.1175 67.2849 78.2137 62.888 85.0872 C 61.4883 87.2752 61.7086 87.3574 64.32 85.6214 C 69.112 82.4356 71.2584 77.7019 70.3849 72.2452 C 70.0415 70.0998 70.044 69.8711 70.4097 70.0138 C 73.7466 71.3163 86.3477 69.8873 88.8182 70.2259 C 89.9252 70.3776 90.2156 70.2969 91.5693 69.4614 C 92.8784 68.6534 93.4623 68.4811 95.8927 68.1859 C 98.3522 67.8872 98.8991 67.7234 100.278 66.8723 C 102.065 65.7691 102.565 65.6831 102.955 66.4118 C 103.455 67.3472 103.241 67.8528 101.746 69.2666 C 100.035 70.8851 100.042 71.2221 101.8 71.8213 C 103.846 72.5183 104.937 72.378 107.727 71.0594 C 110.513 69.7423 110.789 69.6872 111.636 70.2806 C 112.896 71.1629 112.259 72.3668 108.356 76.4774 C 103.231 81.8761 101.655 82.8485 96.9466 83.5156 C 92.6376 84.1262 92.6453 84.1278 92.6453 82.6041 L 92.6453 81.3166 C 97.9483 81.3641 100.906 80.1367 104.933 76.5256 C 106.437 75.1392 106.519 75.2682 104.005 75.0585 C 100.063 74.7298 97.0826 73.1171 97.8116 71.7075 L 98.2151 70.9271 L 95.9991 70.9271 C 93.9746 70.9271 93.6916 70.9933 92.7258 71.693 C 91.8766 72.3343 90.9412 72.835 89.9995 73.3219 L 89.9995 99.1847 C 88.9204 99.4135 87.8476 99.6732 86.7653 99.8869 C 85.6314 100.09 86.4083 73.3325 86.0147 72.9394 C 85.862 72.7869 74.7828 73.7472 74.1906 73.9643 C 73.9543 74.0509 73.8588 74.9 73.856 76.9381 C 73.846 84.1384 70.8629 88.6756 64.6483 90.9422 C 62.275 91.8078 62.5501 92.0255 66.3315 92.2738 C 70.8115 92.5681 74.0679 91.6101 77.5071 88.9861 C 78.7477 88.0395 79.6918 87.45 79.605 87.6762 C 79.3568 88.4443 79.2299 89.2454 79.0814 90.0372 L 82.3266 89.6605 L 82.3266 100.883 L 76.5719 100.755 C 69.0334 100.587 63.9604 99.3295 59.1568 96.4369 C 57.3096 95.3246 57.1995 95.3222 57.157 96.3932 C 57.0379 99.3062 56.9157 102.219 56.7942 105.132 L 52.8255 107.201 C 48.1698 109.628 48.5358 108.977 48.4912 114.908 C 48.4545 119.791 47.7847 120.777 45.1526 119.82 Z M 49.444 89.7105 C 57.4032 87.9735 60.0915 86.3538 61.9556 82.1719 C 62.7584 80.1451 64.4661 78.5572 64.2523 76.2878 C 63.9772 73.6231 62.4885 72.5114 61.8157 74.4684 C 61.1642 76.3637 58.0966 78.7668 56.6028 78.5523 C 55.6934 78.4217 55.2022 77.2557 55.8426 76.7479 C 56.1179 76.5297 56.8704 75.9381 57.5148 75.4334 C 61.3699 72.414 60.0534 69.1357 55.985 71.6239 C 55.1204 72.1526 53.3415 73.2079 52.0318 73.9689 C 50.0237 75.1358 49.4654 75.6174 48.4689 77.0425 C 47.3233 78.7156 45.8596 80.1157 44.4116 81.5186 C 44.6711 84.3674 44.4474 87.2886 44.9274 90.1164 C 45.1274 90.6378 45.2425 90.6274 49.444 89.7105 Z M 13.4484 53.3035 C 15.7758 50.3667 15.7788 50.5867 13.4727 55.0897 C 11.4281 59.0823 11.3528 59.2802 9.29902 66.0599 C 2.53622 88.3845 13.0015 104.987 36.5537 105.058 L 36.5537 110.747 C 36.5537 115.993 36.5177 116.434 36.0907 116.423 C 3.45147 107.987 -9.4503 82.1984 13.4484 53.3035 Z M 155.725 113.852 C 146.268 110.471 145.395 96.7668 154.698 97.727 C 160.831 98.36 162.146 107.075 156.37 108.806 C 154.484 109.371 156.324 110.668 159.011 110.668 C 167.24 110.159 166.27 100.706 165.803 94.6073 L 163.136 94.4451 C 154.137 93.8978 148.086 87.5299 148.078 78.6 C 148.072 71.3089 150.586 67.7807 161.944 59.1409 C 169.453 53.4289 172.228 48.8657 170.01 45.8781 C 168.352 43.646 164.877 46.7959 164.877 50.5301 C 164.877 51.298 161.396 54.1634 160.864 53.8342 C 159.969 53.2814 160.95 46.4295 162.343 43.4957 C 166.572 34.5911 175.278 38.5388 175.284 49.3636 C 175.287 54.4427 173.552 58.2133 169.26 62.4538 C 167.013 64.6733 167.058 64.5161 167.426 68.8687 L 167.594 70.859 C 179.758 73.5811 183.551 87.032 168.975 93.9933 L 169.072 99.8081 C 169.255 110.815 163.67 116.692 155.725 113.852 Z M 165.673 89.7787 C 165.68 88.1072 164.773 77.8027 164.594 77.5125 C 164.224 76.9135 158.849 79.627 161.803 83.7462 C 162.951 85.3469 162.897 85.4272 161.241 84.5879 C 158.249 83.0717 153.423 76.4343 164.42 70.8829 C 164.011 67.6545 164.899 66.132 161.029 68.7441 C 151.334 75.3299 150.405 85.048 159.068 89.271 C 161.969 90.6851 165.668 90.9695 165.673 89.7787 Z M 170.388 88.6562 C 174.572 85.6252 174.669 78.9239 167.713 77.2485 L 167.893 80.3717 C 168.429 89.6908 168.524 90.0065 170.388 88.6562 Z M 25.8241 80.5437 C 22.6447 74.3932 22.915 67.1944 22.7364 60.4761 C 24.5831 64.0049 28.6414 72.7731 31.6331 74.1021 C 31.7524 74.1021 34.8612 70.2869 38.2508 64.1282 C 35.1543 59.9343 30.5893 53.3688 24.3698 41.8776 L 26.1905 39.9982 C 28.3896 37.7282 28.2397 37.7382 29.5307 39.7747 C 32.7273 44.8177 37.4054 52.0001 41.3965 57.243 C 43.4397 53.4038 43.7304 50.3891 44.3152 50.7308 C 48.2408 53.0243 48.1902 52.8805 46.7292 57.5881 C 44.578 64.9617 40.4199 71.4278 36.0876 77.6788 C 33.7309 78.41 27.5628 81.5436 25.8241 80.5437 Z M 56.662 63.9433 C 56.662 63.7246 55.6284 59.038 55.4306 58.3594 C 55.2196 57.636 56.5134 58.8589 58.1125 60.8942 L 59.2995 62.4051 L 57.3235 63.6815 C 56.9597 63.9165 56.662 64.0343 56.662 63.9433 Z M 35.2308 34.0944 C 35.2308 32.8257 34.9672 32.818 32.5849 34.0177 C 30.3985 35.1188 30.0843 35.1468 29.5229 34.2899 C 19.3469 18.7593 34.3364 0.194721 50.7606 7.98696 C 60.3533 12.5381 57.9018 19.3459 48.092 15.3974 C 45.6226 14.4035 45.7604 14.341 46.0854 16.3069 C 46.6983 19.0265 45.4045 21.1437 43.8297 23.1698 L 43.8297 29.1229 C 43.8297 36.6104 44.4929 37.9458 48.3953 38.3157 L 49.6506 38.4347 C 50.3713 35.7976 51.9697 33.8524 54.5687 32.8588 C 57.2666 31.9539 57.179 32.1303 56.2557 29.4608 L 55.4524 27.1386 C 54.0925 26.9175 49.1056 27.1426 48.7245 26.1076 C 48.7245 25.3217 49.4725 25.1369 52.6616 25.1346 C 56.6122 25.1316 56.6519 25.1534 57.8254 27.9568 C 59.5785 32.1447 59.4206 33.3425 57.0237 34.0393 C 56.1934 34.2807 55.5751 34.6257 55.4945 34.8926 C 55.0163 36.4756 54.8137 39.6134 54.8119 45.461 C 54.8109 49.1354 54.7206 52.1338 54.6115 52.1243 C 51.388 51.8407 35.2308 45.6668 35.2308 34.0944 Z M 38.6066 29.9181 C 41.913 27.9022 40.6439 22.5063 36.8641 22.5093 C 32.7262 22.5123 31.2636 27.9797 34.8888 29.8929 C 36.1769 30.5727 37.5181 30.5818 38.6066 29.9181 Z"
         id="path9-2" />
    </g>
  </g>
</svg>
