<?xml version="1.0" encoding="UTF-8" standalone="no"?>
<!-- Created with Inkscape (http://www.inkscape.org/) -->

<svg
   width="210mm"
   height="297mm"
   viewBox="0 0 210 297"
   version="1.1"
   id="svg5"
   inkscape:version="1.1.2 (0a00cf5339, 2022-02-04)"
   sodipodi:docname="scaleguruv2.svg"
   inkscape:export-filename="/home/jorge@grazper.net/Documents/scaleGuru/assets/scaleguruv2.png"
   inkscape:export-xdpi="96"
   inkscape:export-ydpi="96"
   xmlns:inkscape="http://www.inkscape.org/namespaces/inkscape"
   xmlns:sodipodi="http://sodipodi.sourceforge.net/DTD/sodipodi-0.dtd"
   xmlns="http://www.w3.org/2000/svg"
   xmlns:svg="http://www.w3.org/2000/svg">
  <sodipodi:namedview
     id="namedview7"
     pagecolor="#ffffff"
     bordercolor="#666666"
     borderopacity="1.0"
     inkscape:pageshadow="2"
     inkscape:pageopacity="0.0"
     inkscape:pagecheckerboard="0"
     inkscape:document-units="mm"
     showgrid="false"
     inkscape:zoom="1.4142136"
     inkscape:cx="447.95214"
     inkscape:cy="522.55191"
     inkscape:window-width="3832"
     inkscape:window-height="2099"
     inkscape:window-x="3840"
     inkscape:window-y="26"
     inkscape:window-maximized="1"
     inkscape:current-layer="layer1" />
  <defs
     id="defs2" />
  <g
     inkscape:label="Layer 1"
     inkscape:groupmode="layer"
     id="layer1">
    <path
       style="fill:#c7e1e2;fill-opacity:1;stroke:none;stroke-width:0.264583px;stroke-linecap:butt;stroke-linejoin:miter;stroke-opacity:1"
       d="m 97.751323,126.6215 c 0,0 5.424597,-1.08025 5.677147,-1.18256 0.25254,-0.10231 0.80559,11.29148 0.80559,11.29148 l -1.26848,0.25382 -3.704172,0.65688 c 0,0 -3.437141,-2.84938 -3.503805,-6.11749 -0.159811,-3.41447 -0.509736,-2.91673 1.99372,-4.90213 z"
       id="path59208" />
    <path
       style="fill:#01c0f6;fill-opacity:1;stroke-width:0.264583"
       d="m 79.415235,121.17887 4.409226,-6.6127 0.55259,-0.55259 c 0.662689,-0.66269 1.550172,-2.54113 1.558266,-3.29821 0.0032,-0.29893 -0.342421,-1.09262 -0.768038,-1.76375 l -0.77385,-1.22023 1.006223,-0.69731 1.006224,-0.69732 1.611363,0.54283 c 3.496744,0.29748 2.4809,1.65238 2.932744,3.98242 l 0.17725,1.38906 c 0.09749,0.76399 -2.965206,9.49767 -2.936393,9.53407 0.179432,0.22668 -5.847443,3.33287 -3.22919,3.13733 6.126396,-1.09439 0.06101,2.2142 -7.214282,4.36573 -0.529317,-2.64705 0.7176,-5.35636 1.667867,-8.10933 z m -27.473066,32.3565 c -1.237265,-0.29874 -6.50526,-2.05258 -8.334374,-2.77474 -4.791176,-1.89161 -11.244988,-5.71054 -14.537942,-8.60254 -2.026568,-1.7798 -5.22483,-5.71992 -6.612659,-8.14647 -2.847298,-4.97835 -3.862689,-9.37696 -3.633788,-15.74128 0.366144,-10.18004 4.0157,-19.058567 11.863771,-28.861794 1.98636,-2.481213 7.225771,-7.915291 7.63174,-7.915291 0.08945,0 0.43285,0.618847 0.763116,1.375214 1.19371,2.733828 8.414057,14.678006 11.543649,19.095951 4.954106,5.44071 3.323656,4.64267 4.701448,9.8594 -1.900262,2.83669 -2.034255,2.9718 -3.605329,3.63536 -2.851492,1.20436 -5.417908,1.9811 -7.599842,2.30015 -2.9944,0.43783 -8.149711,0.19446 -10.235705,-0.48322 -0.908463,-0.29513 -1.590736,-0.43788 -1.516165,-0.31722 0.249017,0.40292 3.721666,2.60701 4.907626,3.11487 1.320596,0.56552 4.119364,1.10699 5.721781,1.10699 2.12924,0 5.658827,-0.80753 8.06645,-1.84551 1.339152,-0.57734 2.457913,-1.02336 2.486139,-0.99116 0.02822,0.0322 0.137798,8.00597 0.243499,17.71949 l 0.192182,17.66095 -0.758213,-0.0307 c -0.417021,-0.0169 -0.996342,-0.0882 -1.287384,-0.15846 z M 67.676033,93.948153 c 0.29873,-1.226212 0.589685,-2.276015 0.646562,-2.332893 0.210915,-0.210917 2.948668,1.35305 4.763818,2.721375 1.642742,1.238358 3.29941,2.927588 3.974624,4.052745 0.144631,0.241008 -0.03526,0.57745 -0.545264,1.019791 -0.923282,0.800789 -2.91197,2.192419 -3.13304,2.192419 -19.730411,12.312 -9.523809,7.698 -5.7067,-7.653437 z"
       id="path443" />
    <path
       style="fill:#05549e;fill-opacity:1;stroke-width:0.264583"
       d="m 29.363538,182.1965 c 0.745133,-12.5902 2.273769,-33.31896 2.471695,-33.51686 0.08968,-0.0897 1.147654,0.43777 2.351048,1.17213 1.203394,0.73435 2.842832,1.65301 3.643196,2.04144 4.438036,2.37635 9.176287,4.16291 13.395047,5.15493 4.510492,1.23396 8.251254,2.1698 11.622361,3.15362 1.605377,0.48098 2.634244,1.38404 4.157141,-0.18292 3.337729,-2.81566 3.600251,-8.68569 3.552206,-10.80644 l -0.05071,-1.27945 1.719791,-0.85365 c 0.945886,-0.4695 1.794867,-0.85645 1.886625,-0.85989 0.09176,-0.003 0.247735,1.27367 0.346612,2.83802 0.09888,1.56435 -0.136864,7.14712 0.220464,12.24035 0.697407,9.94055 0.597712,18.20895 1.043734,25.62234 0.153215,2.54661 0.04569,5.38346 0.113686,6.25658 -16.174865,-2.83751 -47.620994,5.40148 -46.472893,-10.9802 z m 32.410731,-25.38 c -1.731896,-0.79333 -3.257852,-2.06095 -3.829273,-3.18103 -0.524279,-1.02767 -0.535905,-1.47 -0.516458,-19.64886 l 0.0199,-18.59752 7.810117,-5.15937 c 4.295559,-2.83766 10.090905,-6.75353 12.878539,-8.70195 2.787634,-1.948422 16.081708,-10.873029 29.542376,-19.832466 13.46068,-8.959435 25.46358,-16.990629 26.67313,-17.847101 2.35524,-1.667737 3.16478,-1.815206 3.76883,-0.686543 0.54178,1.01234 0.0702,1.663924 -2.58551,3.57207 -4.9299,3.542231 -34.11522,24.94194 -42.937691,31.48344 -2.546614,1.88821 -6.38638,4.65497 -8.532812,6.14835 -2.146433,1.49338 -3.902604,2.78726 -3.902604,2.87528 0,0.088 0.468992,0.56147 1.042207,1.05212 0.218881,9.01182 0.329946,9.29677 -0.183441,11.01761 0.173908,0.54916 -0.771954,1.34879 -0.954522,1.7273 -0.54388,1.14615 -2.149884,3.10422 -1.602089,2.89401 1.229524,-0.91279 3.149415,-1.25633 3.123253,-1.69605 0.209068,-0.12304 0.276955,-0.40514 0.466413,-0.51908 2.206281,-1.35008 4.112821,-4.04988 4.844989,-6.86086 0.496583,-1.90651 0.527648,-5.36834 0.06421,-7.15496 l -0.342722,-1.32123 1.467201,0.51418 c 1.81846,0.63727 7.117403,0.66638 12.976578,0.0713 3.2335,-0.32842 3.99871,-0.3339 4.86876,-0.0349 0.96483,0.3316 1.08638,0.31354 1.8596,-0.27623 1.58321,-1.20757 3.07007,-1.70398 5.12228,-1.71016 2.03097,-0.006 2.98614,-0.34519 4.80335,-1.7051 1.15782,-0.86645 1.99427,-0.87265 2.55365,-0.019 0.62701,0.95695 0.12552,1.96458 -1.66542,3.34628 -1.3495,1.04114 -1.41795,1.146 -0.96459,1.47775 0.2684,0.1964 1.12356,0.54194 1.90035,0.76786 1.78009,0.51772 2.96267,0.25592 5.52989,-1.2242 1.01307,-0.58408 2.04431,-1.06196 2.29164,-1.06196 0.83685,0 1.9476,0.77009 2.12389,1.47251 0.2227,0.88726 -0.84619,2.3011 -4.79756,6.34584 -5.02531,5.14409 -6.08206,5.74411 -11.19042,6.35398 -4.59311,0.54835 -4.27511,0.62512 -4.18102,-1.0093 l 0.08,-1.38907 2.30018,-0.17532 c 4.25667,-0.32446 6.75063,-1.50521 9.81048,-4.64478 l 1.26275,-1.29565 -1.94193,-0.009 c -2.09431,-0.0101 -4.14359,-0.73818 -5.94463,-2.11192 -0.84762,-0.6465 -0.86789,-0.7022 -0.47419,-1.30307 0.22622,-0.34523 0.41127,-0.69142 0.41127,-0.7693 0,-0.28903 -3.59286,-0.12193 -4.15018,0.19303 -0.31808,0.17976 -1.2397,0.77893 -2.048,1.3315 l -1.46968,1.00466 -0.0687,12.88222 -0.15235,12.68036 -1.81686,0.41008 -1.93775,0.31568 0.0656,-13.29721 -0.0686,-13.61831 -1.65124,0.15616 c -0.90818,0.0859 -3.659208,0.30412 -6.113383,0.48497 l -4.46214,0.32882 0.207219,1.46978 c 0.11397,0.80839 0.202666,1.88651 0.197102,2.39583 l -0.01011,0.92604 0.268414,-0.85989 c 0.194839,-0.62419 0.421111,-0.8548 0.825455,-0.8413 2.010201,-0.009 4.08835,-0.34353 5.912649,-0.23301 0.691872,0.0574 1.016424,0.22155 1.077728,0.54514 0.01286,2.45747 -0.384739,6.17117 -0.356032,12.17453 -0.138086,5.06033 -0.141793,10.34647 0.188997,11.20199 -0.833411,0.3198 -8.926152,0.36544 -11.301277,-0.0198 -4.486701,-0.72772 -10.262271,-2.81305 -12.804282,-4.62312 -0.419796,-0.29892 -0.834181,-0.54349 -0.920859,-0.54349 -0.08668,0 -0.158057,2.17289 -0.158623,4.82866 l -0.0011,4.82864 -4.068283,2.0487 -4.068284,2.04869 -0.187769,2.75484 c -0.103273,1.51514 -0.103706,3.53978 -0.0011,4.49922 0.148926,1.39065 0.100089,1.87674 -0.240835,2.39704 -0.824836,1.25889 -2.267556,1.62814 -3.734935,0.95599 z m 4.899774,-30.42232 c 2.11279,-0.42742 4.644101,-1.07925 5.625134,-1.44851 3.443539,-1.29615 5.612836,-3.32872 6.546262,-6.13365 0.30439,-0.9147 0.734023,-1.81296 0.954741,-1.99614 0.220718,-0.18318 0.643858,-0.8085 0.940313,-1.3896 0.661273,-1.2962 0.551651,-3.29797 -0.238564,-4.35637 -0.713026,-0.95502 -1.20605,-0.89084 -1.426218,0.18565 -0.253846,1.24118 -0.961461,2.11771 -2.636321,3.26565 -1.913633,1.31159 -3.082816,1.54486 -3.731006,0.74437 -0.707139,-0.87328 -0.594101,-1.4785 0.383916,-2.05555 2.317062,-1.3671 3.776818,-3.23295 3.473815,-4.44022 -0.357635,-1.42492 -1.828025,-1.47683 -3.51259,-0.124 -0.528278,0.42425 -2.151131,1.40386 -3.606339,2.17693 -2.585847,1.37369 -2.679809,1.45676 -4.144341,3.6638 -0.824177,1.24203 -1.916589,2.54471 -2.427576,2.89485 -0.51099,0.35014 -0.967756,0.87854 -1.015037,1.17424 -0.04728,0.2957 -0.04774,2.4182 -0.0011,4.71668 0.07662,3.76971 0.128453,4.16534 0.529167,4.03902 0.244321,-0.077 2.172869,-0.48973 4.285662,-0.91715 z m -15.483108,26.69558 c -6.234898,-1.63732 -12.604779,-4.48228 -17.71052,-7.90995 -10.722885,-7.19868 -15.030775,-17.21153 -13.795089,-29.20925 0.319397,-10.39341 5.350108,-19.273299 8.808744,-23.685097 1.3795,-2.026724 4.21236,-5.309505 4.161811,-5.15516 -0.505693,1.544024 -0.884589,1.908622 -1.242513,3.164681 -0.409807,1.43814 -0.825119,3.231865 -1.2545,4.84763 -0.438579,2.234478 -0.95648,4.183205 -1.315585,9.653976 -0.09466,0.50801 -0.0059,5.60019 0.122325,7.02074 0.315229,3.49132 2.440257,9.80602 4.184771,12.43541 1.694979,2.55473 3.803174,4.7876 6.072103,6.4312 2.95008,2.13703 8.154413,3.9174 12.629893,4.32061 0.945886,0.0852 1.742014,0.17385 1.769179,0.19696 0.07532,0.0641 0.161155,10.66936 0.119634,14.78197 -0.02754,2.72798 -0.119459,3.63233 -0.367459,3.61534 -0.181901,-0.0124 -1.164166,-0.24154 -2.182812,-0.50906 z m -9.606515,-37.899 c -0.449199,-1.34606 -0.945645,-2.94973 -1.103209,-3.56371 -0.811848,-3.16346 -1.308524,-10.54099 -0.911262,-13.5357 l 0.177331,-1.336781 1.633152,3.496481 c 1.916744,4.10364 3.957359,7.25138 6.419513,9.90237 l 0.842346,0.90696 2.200363,-3.25955 c 1.210201,-1.79275 2.660091,-4.01478 3.221976,-4.93785 l 1.021615,-1.67829 -0.828572,-1.09983 C 51.009968,95.773939 41.26906,79.872306 41.26906,78.881484 c 0,-0.156813 0.90377,-1.206632 2.008373,-2.332935 l 2.008373,-2.047816 0.457978,0.600485 c 0.251888,0.330263 0.917334,1.374389 1.478764,2.320274 1.71767,2.89388 6.955057,10.822932 9.067953,13.728268 2.355052,3.23831 2.223781,3.275238 3.625996,-1.020026 0.500295,-1.532502 1.036524,-2.755649 1.19162,-2.718102 0.648256,0.15693 3.973444,2.55017 3.973444,2.85981 0,0.859729 -1.929752,6.893578 -3.04065,9.507341 -1.773375,4.172467 -2.825602,6.022437 -6.86108,12.062797 l -1.872229,2.80237 -2.778125,1.103 c -2.790227,1.10781 -5.772785,1.87806 -7.30531,1.88661 -0.803666,0.005 -0.842221,-0.0529 -1.639747,-2.4428 z m 31.827515,-14.55208 c -0.641876,-2.61056 -1.376423,-6.171629 -1.291526,-6.261305 0.288906,-0.305159 4.424248,4.651307 4.192965,5.025531 -0.168031,0.271883 -2.389933,1.831084 -2.609339,1.831084 -0.08015,0 -0.211595,-0.26789 -0.2921,-0.59531 z"
       id="path423" />
    <path
       style="fill:#011b32;fill-opacity:1;stroke-width:0.264583"
       d="m 24.200271,210.21783 c -2.296088,-1.40002 -2.509856,-4.27704 -0.452035,-6.08384 0.78214,-0.68672 1.132237,-0.80697 2.349481,-0.80697 0.786712,0 1.492261,-0.10012 1.567887,-0.22248 0.15418,-0.24947 1.040135,-12.26272 1.486056,-20.15044 0.160422,-2.83765 0.585435,-9.26601 0.944475,-14.28523 0.35904,-5.01922 0.823682,-11.55332 1.032542,-14.5202 0.208859,-2.96689 0.436091,-5.45069 0.50496,-5.51956 0.06887,-0.0689 0.957799,0.3907 1.9754,1.02126 1.607513,0.99611 1.836632,1.23392 1.746861,1.81313 -0.480645,3.10109 -0.769035,14.26665 -0.509254,19.71665 l 0.2144,4.49791 0.317402,-3.30729 c 0.612095,-6.378 0.807572,-7.97728 1.875695,-15.34583 0.369149,-2.54662 0.714565,-4.6743 0.767588,-4.72819 0.05302,-0.0539 1.414698,0.48841 3.025941,1.20511 l 2.929536,1.30308 0.102552,5.14489 c -0.464619,6.50391 0.456899,17.25009 1.025528,20.18138 0.54347,3.24236 1.586018,10.00459 4.096271,10.32986 3.917775,-0.99545 3.231203,-20.03555 3.351006,-22.58825 0.07709,-1.67349 0.214215,-4.65006 0.30471,-6.61459 0.0905,-1.96453 0.1968,-3.60827 0.236231,-3.65275 0.03943,-0.0445 1.139084,0.16971 2.443673,0.47599 l 2.371979,0.55688 0.175106,4.02192 c 0.297503,6.83322 0.494436,9.90681 0.517693,10.22373 0,0 0.305416,5.13905 0.514178,7.58993 0.129881,0.95126 0.489767,8.128 2.693553,8.39676 0.880126,-0.31299 1.629384,-2.37126 1.969762,-4.91492 0.396653,-2.27586 0.549206,-10.23344 0.695391,-15.68608 0.04191,-2.47385 0.08787,-5.09322 0.102156,-5.82083 0.02567,-1.31013 0.03741,-1.32762 1.208696,-1.80929 0.650505,-0.2675 1.532916,-0.88521 1.960933,-1.37269 l 0.778192,-0.88631 0.271092,1.2404 c 0.278607,1.27474 0.4522,2.30386 0.700114,4.15081 0.07813,0.58208 0.198914,1.41552 0.268394,1.85208 0.269716,1.69448 0.463179,3.24074 0.905139,7.23386 l 0.45855,4.14322 0.209867,-2.61121 c 0.224922,-2.79898 0.0053,-13.52703 -0.387826,-18.95233 -0.131842,-1.81901 -0.309007,-4.26185 -0.3937,-5.42853 l -0.154014,-2.12125 1.734502,-0.85531 c 0.953982,-0.47043 1.775646,-0.85532 1.825943,-0.85532 0.0503,0 0.173884,1.51804 0.274637,3.37343 0.100754,1.85539 0.531204,8.255 0.956548,14.22136 0.425345,5.96635 0.956469,13.88401 1.180307,17.59479 0.572928,9.49866 1.164484,18.36282 1.355196,20.30677 l 0.162242,1.65365 h 56.735453 c 62.24233,0 57.60781,-0.12304 58.80711,1.56124 1.1911,1.67272 0.93081,3.63624 -0.66812,5.04012 l -0.91911,0.807 -83.40069,-0.001 c -82.199637,-0.001 -83.41286,-0.008 -84.246205,-0.51654 z m 76.639679,-23.20815 c -1.80567,-0.53509 -2.599271,-0.84037 -3.369771,-2.15513 -0.59571,-1.01651 -0.887299,-1.79182 -0.793689,-3.26189 0.0892,-1.40187 0.24887,-1.87751 0.90715,-2.70323 1.3928,-1.74708 3.4611,-2.3865 5.98628,-1.8507 l 0.98811,0.20966 0.0702,-7.6103 0.0702,-7.6103 0.659,-0.32842 c 0.53166,-0.26496 0.76168,-0.2603 1.19063,0.0242 0.51305,0.34025 0.53633,0.70768 0.66614,10.50718 0.074,5.58503 0.0377,10.54481 -0.0806,11.02173 -0.62311,3.38713 -4.31802,3.94164 -6.29365,3.7572 z m 17.51814,-2.23235 c -2.26878,-0.58479 -3.5578,-2.55531 -3.55997,-4.93671 -0.003,-1.80518 0.65215,-3.19042 2.03351,-4.30846 0.80502,-0.65156 1.28331,-0.81503 2.63671,-0.90121 1.1263,-0.0717 1.97686,0.0299 2.66832,0.31882 0.55824,0.23325 1.05997,0.42409 1.11495,0.42409 0.055,0 0.1,-4.28625 0.1,-9.525 0,-5.23875 -0.0933,-9.525 -0.20746,-9.525 -0.11411,0 -0.82168,0.62506 -1.57236,1.38906 l -1.36486,1.38907 -0.0813,4.41336 c -0.0732,3.97171 -0.13589,4.48638 -0.62682,5.14303 -1.31228,1.75529 -3.07229,2.33267 -4.72292,1.54939 -1.16583,-0.55322 -1.74302,-1.56261 -1.74302,-3.04818 0,-1.98693 1.4346,-3.4274 3.41344,-3.4274 h 0.81989 v -5.138 -5.138 l 3.50573,-3.17466 c 4.58255,-4.14979 4.92458,-4.41445 5.10326,-3.94881 0.0775,0.20192 0.10694,8.03918 0.0654,17.41612 -0.0747,16.87638 -0.0812,17.05969 -0.64503,18.10731 -0.93616,2.40897 -3.90277,3.70337 -6.93747,2.92118 z M 60.211473,155.99752 c -0.928248,-0.58894 -1.881696,-1.45719 -2.248959,-2.048 l -0.637555,-1.02562 0.06174,-18.76741 0.06174,-18.7674 8.537229,-5.71801 c 4.695455,-3.14491 10.620798,-7.18496 13.167412,-8.97788 2.546615,-1.792934 7.07099,-4.875041 10.054167,-6.849129 9.388634,-6.212835 43.978833,-29.286224 45.673143,-30.466273 1.3865,-0.965642 1.70029,-1.085345 2.17675,-0.830347 0.3062,0.163875 0.68699,0.541332 0.84619,0.838797 0.42521,0.79455 -0.13385,1.483498 -2.70449,3.332655 -2.08473,1.499624 -13.30312,9.701154 -27.77598,20.306435 -3.58759,2.628894 -9.362126,6.882291 -12.832295,9.451993 -3.470143,2.569705 -8.21436,6.003829 -10.542693,7.631379 -2.328333,1.62756 -4.292865,3.02395 -4.365625,3.1031 -0.07276,0.0791 0.0463,0.20348 0.264583,0.2763 0.822458,0.27435 2.586805,2.41375 3.006567,3.64568 0.713713,2.09457 0.575442,4.00151 -0.426879,5.88739 -0.472943,0.88986 -1.359985,2.56078 -1.971199,3.71315 -0.611214,1.15237 -1.304343,2.28824 -1.540245,2.52416 -1.078574,1.07856 1.414409,-0.21189 3.321367,-1.71927 1.970802,-1.55781 2.499254,-2.20055 3.563488,-4.33407 1.204357,-2.41445 1.634992,-5.17709 1.230709,-7.89533 -0.158882,-1.06821 -0.361288,-2.13093 -0.449818,-2.3616 -0.146897,-0.3828 -0.04942,-0.38282 1.116595,-2.3e-4 1.681638,0.55178 7.06956,0.58971 12.613265,0.0888 3.21948,-0.29089 4.44712,-0.30909 5.29167,-0.0784 1.03029,0.28139 1.16986,0.25057 2.21131,-0.48831 1.59525,-1.1318 3.05091,-1.56802 5.23243,-1.56802 1.82099,0 1.99805,-0.0566 3.72464,-1.19062 0.997,-0.65485 1.94871,-1.19063 2.11487,-1.19063 0.50988,0 1.1779,0.93055 1.1779,1.64078 0,0.6547 -1.56541,2.37428 -2.78043,3.05423 -0.758,0.42421 -0.1002,1.04278 1.64999,1.55158 1.94308,0.56487 3.27213,0.32647 5.5162,-0.9895 2.03673,-1.19436 3.24458,-1.38375 4.06865,-0.63796 1.02963,0.93178 0.71874,1.80285 -1.53918,4.31281 -2.88023,3.20176 -6.92645,7.06304 -7.96304,7.59908 -0.47543,0.24586 -1.34461,0.61643 -1.93148,0.82349 -1.35956,0.47968 -7.62511,1.26101 -7.86498,0.98078 -0.0995,-0.11623 -0.12904,-0.77688 -0.0656,-1.4681 l 0.11525,-1.25677 1.7593,-0.004 c 2.24083,-0.005 4.86608,-0.62205 6.35256,-1.49318 0.63844,-0.37416 2.12588,-1.52984 3.30539,-2.56816 l 2.14458,-1.88787 -2.3758,-0.13382 c -2.45965,-0.13847 -4.38229,-0.83008 -5.92958,-2.13288 -0.63031,-0.53073 -0.63404,-0.55754 -0.18346,-1.32029 l 0.4599,-0.77855 h -2.11135 c -2.01263,0 -2.16913,0.0441 -3.34637,0.9427 -0.67926,0.51849 -1.5218,1.07338 -1.87235,1.23309 l -0.63735,0.2904 v 12.90159 12.9016 l -0.8599,0.27735 c -0.47294,0.15254 -1.36591,0.35559 -1.98438,0.45121 l -1.12447,0.17386 v -13.68817 c 0,-11.72624 -0.0539,-13.66747 -0.37632,-13.54376 -0.20696,0.0794 -3.004107,0.35821 -6.215832,0.61953 -5.599668,0.4556 -5.832686,0.49668 -5.672984,0.99991 0.09163,0.28864 0.158883,1.6597 0.14949,3.0468 -0.04442,6.55858 -3.325495,11.33375 -9.278885,13.50424 l -1.964346,0.71617 2.032953,0.30236 c 2.641071,0.39281 3.129968,0.38324 6.035463,-0.11816 3.333777,-0.57532 4.558083,-1.25069 8.741807,-4.82226 0.420608,-0.35907 0.414523,-0.25468 -0.06681,1.14434 -0.291307,0.84669 -0.469318,1.59977 -0.395579,1.67351 0.07374,0.0737 0.737976,-0.005 1.476058,-0.1757 0.738108,-0.17038 1.452006,-0.30978 1.586415,-0.30978 0.141843,0 0.244395,2.37234 0.244395,5.65392 v 5.65393 l -0.992187,0.16399 c -1.761649,0.29119 -7.268792,0.17064 -9.988021,-0.21863 -4.382955,-0.62744 -8.452829,-1.9808 -12.364243,-4.11151 -0.833993,-0.45431 -1.607899,-0.96712 -1.719792,-1.13959 -0.111918,-0.17246 -0.262995,1.94862 -0.335756,4.71352 l -0.132291,5.02708 -3.859425,1.98437 c -2.122699,1.09141 -3.997933,2.0807 -4.167187,2.19843 -0.214471,0.14918 -0.307763,1.64692 -0.307763,4.94174 v 4.72768 l -0.697125,0.54837 c -1.125061,0.88496 -2.581407,0.72945 -4.486145,-0.47905 z m 6.552118,-29.62281 c 5.582497,-1.18193 7.760123,-2.10815 9.835144,-4.18325 1.093074,-1.09313 1.583611,-1.9046 2.189612,-3.62216 0.211349,-0.59908 0.811901,-1.7101 1.334532,-2.46893 0.874871,-1.27028 0.940488,-1.49712 0.827432,-2.86041 -0.126127,-1.52089 -0.828702,-2.84243 -1.591019,-2.99263 -0.282866,-0.0557 -0.449236,0.23442 -0.570998,0.99591 -0.208412,1.30336 -1.521406,2.70632 -3.559968,3.80394 -1.668277,0.89823 -2.475891,0.7997 -2.956533,-0.36069 -0.183515,-0.44308 -0.287894,-0.83899 -0.231934,-0.87979 0.05599,-0.0408 0.889238,-0.62676 1.851713,-1.30212 2.407973,-1.68966 3.181985,-3.3321 2.086504,-4.42756 -0.801794,-0.8018 -1.506194,-0.65111 -3.553513,0.76021 -1.028753,0.70916 -2.703883,1.70914 -3.722529,2.22218 -2.051341,1.03317 -2.538756,1.49017 -3.907869,3.66413 -0.515117,0.81794 -1.483678,1.94448 -2.152385,2.50343 l -1.215787,1.01627 v 2.15229 c 0,1.18375 0.07811,3.25247 0.17354,4.59714 0.163486,2.30293 0.205713,2.43786 0.727604,2.32443 0.304747,-0.0662 2.301134,-0.49031 4.436454,-0.94239 z m -16.053216,26.55391 c -5.933495,-1.57375 -12.333419,-4.43268 -17.310774,-7.73295 -5.234088,-3.4705 -9.982039,-8.79048 -12.188711,-13.65719 -3.269488,-7.2107 -3.366402,-15.77116 -0.28697,-25.34845 2.363531,-6.936609 6.119752,-12.063273 8.959424,-15.75488 1.524426,-1.865148 2.771836,-3.433546 2.751394,-3.275322 -0.02429,0.188037 -0.787855,2.19569 -1.9031,4.137379 -2.929985,5.101233 -3.086804,7.209296 -4.250897,10.690993 -1.813869,5.42513 -2.417288,8.95406 -2.443638,14.29091 -0.03224,6.52953 0.727165,9.4035 3.678978,13.92316 3.602037,4.95366 10.195557,8.9399 15.490618,10.26987 6.317922,1.38489 9.66079,1.77815 10.038863,1.181 0.14069,-0.22221 0.236459,2.09524 0.238887,5.78065 0.0021,3.38336 -0.08525,6.1459 -0.194386,6.13899 -0.109141,-0.007 -1.27,-0.29679 -2.579688,-0.64416 z m 79.566675,12.43432 c -1.27848,-0.31204 -2.35208,-2.91327 -1.20945,-4.46367 0.51036,-0.6925 1.70844,-1.44407 2.85385,-1.79026 0.48435,-0.14639 0.49398,-0.51615 0.30605,-11.75812 -0.14124,-8.4477 -0.1128,-11.75885 0.10453,-12.16492 0.37661,-0.7037 1.61618,-0.745 2.22335,-0.0741 0.39566,0.43719 0.43781,1.80889 0.43691,14.22136 0,13.14989 -0.023,13.77366 -0.51655,14.58302 -1.11015,1.75238 -3.25118,1.67758 -4.19869,1.44669 z m 42.981,-14.23514 c -1.39364,-0.25995 -3.9987,-1.66277 -5.23462,-2.81884 -1.92463,-1.80027 -3.48396,-5.06797 -3.49438,-7.32276 -0.0109,-2.33623 1.76276,-5.15984 3.83331,-6.10284 2.17543,-0.99076 5.61869,-0.32424 7.19728,1.3932 1.47566,1.60547 1.85536,4.68185 0.8374,6.78467 -0.60825,1.25648 -2.28496,2.65294 -3.47061,2.89052 -0.9655,0.19347 -0.91745,0.42028 0.20208,0.95415 2.34437,1.11795 4.99206,0.69644 7.06015,-1.12397 1.81837,-1.60059 2.40971,-3.19402 2.54288,-6.85193 0.0601,-1.6502 0.0282,-3.97193 -0.0708,-5.15938 l -0.18007,-2.159 -1.89977,-0.0297 c -5.50902,-0.086 -10.30578,-2.61281 -13.29055,-7.00109 -1.83904,-2.70383 -2.51931,-4.74709 -2.69221,-8.08621 -0.17077,-3.298 0.32329,-5.78729 1.67362,-8.43236 0.87945,-1.72264 2.85001,-4.32412 4.2077,-5.55484 1.68457,-1.52704 5.2778,-4.456359 7.14335,-5.823493 3.0558,-2.239396 6.57005,-5.254193 7.51422,-6.446273 1.26323,-1.594962 2.13754,-3.694378 2.1405,-5.139725 0.008,-3.827237 -3.17886,-4.215942 -4.77271,-0.582173 -0.25532,0.582083 -0.54668,1.683644 -0.64749,2.447909 -0.1801,1.36557 -0.2182,1.414756 -2.20443,2.847155 -2.37823,1.715098 -2.38238,1.712118 -2.40376,-1.723189 -0.0405,-6.502905 3.20722,-12.239442 7.27461,-12.849384 0.96221,-0.144296 1.43169,-0.04871 2.62268,0.533998 4.16515,2.037813 6.20099,8.428085 4.63532,14.549774 -0.9665,3.778953 -3.03838,6.939131 -6.57992,10.036001 l -1.15227,1.00758 0.18714,3.11455 0.18714,3.11456 1.37687,0.30813 c 2.26398,0.50666 4.55933,1.75104 6.13346,3.32517 5.64153,5.64152 3.53312,15.23604 -4.14662,18.8698 l -2.08093,0.98461 0.16862,1.32292 c 0.0927,0.7276 0.17889,3.40651 0.19143,5.95312 0.0212,4.26743 -0.0257,4.75008 -0.59471,6.16011 -1.98834,4.92611 -6.92263,7.59616 -12.21388,6.6092 z m 9.08757,-24.60941 c 0,-0.40262 -0.27051,-3.28636 -0.50297,-6.41373 -0.23247,-3.12736 -0.46181,-5.72527 -0.50967,-5.77314 -0.20423,-0.20423 -2.25097,1.05194 -2.7522,1.68914 -0.62587,0.79568 -0.95596,2.2036 -0.72884,3.1086 0.0853,0.3399 0.56858,1.14051 1.07397,1.77913 0.50535,0.63863 0.87696,1.203 0.82579,1.25417 -0.2703,0.2703 -2.40827,-0.68023 -3.35749,-1.49272 -3.83892,-3.28599 -2.20889,-9.83009 3.04152,-12.21075 l 1.65828,-0.7519 -0.18124,-1.75105 c -0.0997,-0.96308 -0.24916,-1.81899 -0.33219,-1.90201 -0.20299,-0.20299 -4.7321,2.97282 -6.47718,4.54179 -1.7575,1.58013 -2.85091,3.16047 -3.50787,5.06993 -0.61617,1.79096 -0.67138,4.50434 -0.12835,6.30868 1.22356,4.0656 5.66515,7.21998 10.21863,7.25723 l 1.74011,0.0142 -0.0803,-0.72761 z m 4.8863,-1.15029 c 4.16793,-3.06512 3.25794,-9.44627 -1.54345,-10.82329 -0.48779,-0.13989 -0.93874,-0.20251 -1.00211,-0.13914 -0.11319,0.11319 0.34618,7.276 0.65805,10.26063 0.0927,0.88684 0.28704,1.52136 0.46603,1.52136 0.16889,0 0.80854,-0.3688 1.42148,-0.81956 z M 42.248014,117.139 c -0.839531,-2.10574 -1.754384,-5.04267 -2.10565,-6.75972 -0.539861,-2.63895 -0.978149,-9.63127 -0.733033,-11.694665 l 0.188544,-1.587199 1.321255,2.910114 c 0.726692,1.60056 2.118538,4.10969 3.092993,5.57584 1.745475,2.62621 4.030964,5.40407 4.446206,5.40407 0.229873,0 4.485294,-6.42609 5.707317,-8.61859 l 0.748289,-1.34254 -1.203058,-1.567876 C 51.59189,96.696888 46.890636,89.312084 43.928515,84.092143 42.347029,81.305199 41.053084,78.92097 41.053084,78.793854 c 0,-0.127114 0.901978,-1.121106 2.004393,-2.208871 1.933329,-1.907633 2.018366,-1.958991 2.398456,-1.448586 0.216733,0.291041 1.789279,2.731823 3.494548,5.423958 3.235997,5.108723 7.148848,10.854915 8.462729,12.427892 l 0.767223,0.918514 0.535655,-1.050806 c 0.294608,-0.577945 0.856583,-2.080691 1.248836,-3.339433 l 0.713171,-2.288627 2.093754,1.332664 c 1.151546,0.732964 2.093727,1.425903 2.093727,1.539861 0,0.535588 -1.893385,6.693654 -2.619534,8.519803 -1.606867,4.040957 -4.466688,9.124107 -7.860385,13.971327 l -1.400958,2.00099 -2.724663,1.08604 c -2.484326,0.99024 -6.033564,1.92344 -7.315406,1.92344 -0.28161,0 -0.595085,-0.20836 -0.696616,-0.46302 z M 73.077608,99.539163 c -0.176848,-0.906729 -0.489533,-2.298692 -0.694902,-3.093251 -0.205343,-0.794557 -0.37338,-1.562055 -0.37338,-1.705549 0,-0.375531 1.668806,1.296479 3.054958,3.060816 l 1.188218,1.512411 -1.129401,0.76481 c -0.621162,0.42065 -1.263173,0.84234 -1.426686,0.93709 -0.194998,0.11299 -0.407935,-0.39504 -0.618807,-1.476327 z M 67.379118,87.993932 C 61.557491,85.775041 58.329687,83.656843 55.527451,80.216452 53.498605,77.725575 51.901,73.693232 51.901,71.063311 c 0,-0.597461 -0.0893,-1.088218 -0.198437,-1.090575 -0.109141,-0.0024 -1.176724,0.503658 -2.372408,1.124479 -2.572594,1.335741 -2.748089,1.288645 -3.693356,-0.991116 -2.535123,-6.114106 -3.202566,-10.210091 -2.350074,-14.42199 0.638178,-3.153048 1.923413,-5.494317 4.369295,-7.959402 3.239013,-3.26444 7.083473,-4.735185 12.377561,-4.735185 2.936176,0 4.936426,0.431671 7.473992,1.612958 3.541606,1.64868 6.66025,4.791123 6.721104,6.772408 0.02566,0.83489 -0.09483,1.038473 -0.896434,1.515083 -0.754089,0.448358 -1.368214,0.550595 -3.307292,0.550595 -2.398607,0 -4.062809,-0.385984 -6.283087,-1.457253 l -0.991394,-0.478354 0.197644,1.100096 c 0.401929,2.236848 0.215979,3.926797 -0.596291,5.419187 -0.421085,0.773676 -0.980255,1.521561 -1.242589,1.661959 -0.438177,0.234509 -0.476833,0.744202 -0.475245,6.265236 0.0027,6.555102 0.0354,6.718027 1.640469,7.980582 0.813383,0.639802 2.649035,1.336669 3.520996,1.336669 0.470905,0 0.634603,-0.191193 0.766736,-0.895564 0.219181,-1.168291 1.385279,-2.88513 2.536508,-3.734474 0.503475,-0.371468 1.721537,-0.915464 2.706793,-1.208882 1.302888,-0.388016 1.791732,-0.656685 1.792764,-0.985303 0,-0.248499 -0.369782,-1.37455 -0.82349,-2.502336 L 71.949848,63.891608 H 68.96929 c -3.176588,0 -3.789918,-0.227502 -3.455353,-1.281652 0.221298,-0.697209 0.870268,-0.827789 4.114139,-0.827789 3.655272,0 3.859742,0.0699 4.520274,1.545363 1.163505,2.598914 1.870366,4.701775 1.876372,5.582062 0.0074,1.080111 -1.007481,2.125763 -2.063168,2.125763 -1.011449,0 -1.687645,0.473877 -1.687645,1.182709 0,0.34921 -0.125624,0.965345 -0.279162,1.369192 -0.173513,0.456385 -0.271224,3.516884 -0.25818,8.087016 l 0.0209,7.35275 -0.866299,-0.01233 c -0.476461,-0.0068 -2.056924,-0.466114 -3.512132,-1.02076 z M 54.907783,66.966378 c 2.556201,-1.068048 3.155273,-4.444521 1.145207,-6.454587 -1.698244,-1.698244 -4.078414,-1.426165 -5.659668,0.646965 -1.485386,1.947442 -0.72895,4.604342 1.613795,5.66829 1.307131,0.593627 1.761188,0.615437 2.900666,0.139332 z M 142.87981,168.80725 c -1.80567,-0.53509 -2.59927,-0.84037 -3.36977,-2.15513 -0.59571,-1.01651 -0.8873,-1.79182 -0.79369,-3.26189 0.0892,-1.40187 0.24887,-1.87751 0.90715,-2.70323 1.3928,-1.74708 3.4611,-2.3865 5.98628,-1.8507 l 0.98811,0.20966 0.0695,-14.23552 0.16321,-7.30401 1.62985,-0.97843 c 0.5093,-0.30574 -0.11339,0.15319 0.31556,0.43772 0.51305,0.34025 0.34754,0.63791 0.47735,10.43741 0.074,5.58503 0.0384,17.17003 -0.0799,17.64695 -0.62311,3.38713 -4.31802,3.94164 -6.29365,3.7572 z m 3.95079,-31.30082 c 0,0 6.6417,-6.04119 9.51085,-7.82671 0.0838,0.21827 0.30647,2.75095 0.32267,8.99512 0.033,12.66828 0.0328,12.67017 -1.74009,13.41092 -1.49606,0.62509 -2.44895,0.48444 -3.44135,-0.50796 -1.43598,-1.43595 -1.5321,-2.87101 -0.28266,-4.21916 0.35491,-0.38296 0.98285,-0.77058 1.39544,-0.86138 0.41259,-0.0908 0.89898,-0.21095 1.08088,-0.26698 0.24865,-0.0766 0.33073,-1.2899 0.33073,-4.88831 0,-3.75956 0.30476,-5.91172 0.0449,-5.75442 -1.2441,0.75337 -4.27002,3.71839 -4.8857,4.22593 l -0.73969,0.60977 z"
       id="path391"
       sodipodi:nodetypes="csssssssssscsssscccccssscsccccccsscsssscssscsssscscssscscccscsscccsssccccssssssscssssscccsscccssccccssssssssscsssscsssssscssssssssssssscccssccsscssscccsscsssssscssssscsscssssscssscssscsssscsssssssssscscccsssccssssccsccscssssscccsscsssssssccssssssscsssssssscccsssccccsscsssssssscsssssscccssssssssscsssscssssssscsscsssscsssscsscssscsscssssssssssccsscsscsscscsssccssscccccssssscscsscccssscccccssssssscscc" />
  </g>
</svg>
