<svg id="visual" viewBox="0 0 900 675" width="900" height="675" xmlns="http://www.w3.org/2000/svg" xmlns:xlink="http://www.w3.org/1999/xlink" version="1.1"><rect x="0" y="0" width="900" height="675" fill="#FFFFFF"></rect><defs><linearGradient id="grad1_0" x1="25%" y1="0%" x2="100%" y2="100%"><stop offset="23.333333333333336%" stop-color="#ffffff" stop-opacity="1"></stop><stop offset="76.66666666666666%" stop-color="#ffffff" stop-opacity="1"></stop></linearGradient></defs><defs><linearGradient id="grad2_0" x1="0%" y1="0%" x2="75%" y2="100%"><stop offset="23.333333333333336%" stop-color="#ffffff" stop-opacity="1"></stop><stop offset="76.66666666666666%" stop-color="#ffffff" stop-opacity="1"></stop></linearGradient></defs><g transform="translate(900, 0)"><path d="M0 506.3C-66.8 491.2 -133.7 476.2 -183.3 442.5C-232.9 408.8 -265.4 356.5 -315.4 315.4C-365.4 274.3 -433 244.4 -467.7 193.7C-502.5 143 -504.4 71.5 -506.2 0L0 0Z" fill="#FFEBC2"></path></g><g transform="translate(0, 675)"><path d="M0 -506.2C72.8 -502.2 145.7 -498.1 189.8 -458.2C233.9 -418.4 249.3 -342.7 297.7 -297.7C346.1 -252.7 427.5 -238.2 467.7 -193.7C508 -149.2 507.1 -74.6 506.3 0L0 0Z" fill="#FFEBC2"></path></g></svg>