<svg id="visual" viewBox="0 0 675 900" width="675" height="900" xmlns="http://www.w3.org/2000/svg" xmlns:xlink="http://www.w3.org/1999/xlink" version="1.1"><rect x="0" y="0" width="675" height="900" fill="#FFFFFF"></rect><defs><linearGradient id="grad1_0" x1="0%" y1="0%" x2="100%" y2="100%"><stop offset="30%" stop-color="#ffffff" stop-opacity="1"></stop><stop offset="70%" stop-color="#ffffff" stop-opacity="1"></stop></linearGradient></defs><defs><linearGradient id="grad2_0" x1="0%" y1="0%" x2="100%" y2="100%"><stop offset="30%" stop-color="#ffffff" stop-opacity="1"></stop><stop offset="70%" stop-color="#ffffff" stop-opacity="1"></stop></linearGradient></defs><g transform="translate(675, 0)"><path d="M0 506.3C-75.8 506 -151.6 505.7 -191 461C-230.3 416.3 -233.3 327.2 -281.4 281.4C-329.5 235.7 -422.7 233.4 -467.7 193.7C-512.7 154.1 -509.5 77 -506.2 0L0 0Z" fill="#FFEBC2"></path></g><g transform="translate(0, 900)"><path d="M0 -506.2C72.9 -500.8 145.9 -495.4 187.9 -453.6C229.9 -411.9 241.1 -333.8 289.9 -289.9C338.8 -246 425.4 -236.4 467.7 -193.7C510.1 -151.1 508.2 -75.6 506.3 0L0 0Z" fill="#FFEBC2"></path></g></svg>