<?xml version="1.0" encoding="UTF-8" standalone="no"?>
<!-- Created with Inkscape (http://www.inkscape.org/) -->

<svg
   version="1.1"
   id="svg1"
   width="790.05707"
   height="591.66681"
   viewBox="0 0 790.05707 591.66681"
   xml:space="preserve"
   xmlns="http://www.w3.org/2000/svg"
   xmlns:svg="http://www.w3.org/2000/svg"><defs
     id="defs1" /><g
     id="g1"
     transform="translate(-125.24957,-129.07672)"><g
       id="g119"
       transform="translate(-52,58)"><path
         style="fill:#f9f4ea;fill-opacity:1"
         d="m 302.5,292.5 5.5,112.75 3.75,21.5 14.75,30.5 24.75,28 64.5,57.5 61.5,20.25 21.25,-25.75 c 0,0 13.5,-29 14.5,-29 1,0 19.75,-16.25 19.75,-16.25 l 16,-49.5 2,-33.5 -1.5,-31.75 -10.5,-25.75 -10,-10.75 -207.25,-65 z"
         id="path1" /><path
         style="fill:#e7cba1"
         d="m 682.78478,529.57672 c 5.85252,-10.72322 3.72011,-6.13778 9.67059,-14.75179 4.70204,-7.48846 11.64849,-10.66433 19.35449,-14.69002 8.76892,-4.58097 11.56529,-8.71603 26.91408,-10.6105 7.12861,-0.87987 13.83226,-2.09483 19.25,-3.82273 10.64534,-1.63529 16.36471,-4.41473 22.15844,-1.32268 13.86204,7.39801 0.39577,-1.73272 9.84156,16.74335 1.6206,3.16991 0.0462,10.01698 2.24144,12.32471 5.35587,5.6302 9.12688,4.09292 9.75361,11.00467 0.44596,4.91806 2.61719,5.63627 0.33938,10.29195 -1.47764,3.02017 -2.86732,4.44509 -4.61597,5.91648 -3.0134,2.53562 -6.43294,8.30055 -6.49806,15.11533 -0.0881,9.22369 1.66401,10.55701 -5.57479,15.0569 -4.02479,2.50195 -9.14561,6.05604 -9.14561,8.42592 0,7.30397 -4.05891,14.35542 -12.53132,18.87117 -7.25296,3.86579 -28.64079,10.67032 -40.42398,11.6912 -39.21539,25.17049 5.00436,16.84726 -41.45734,-3.55422 -10.69792,1.19288 -5.85197,-64.64194 0.72348,-76.68974 z"
         id="path122" /><path
         style="fill:#e7cba1;fill-opacity:1"
         d="m 310.125,311.5 c 1.375,9.625 1.375,69.875 -0.375,72.75 C 303.04528,395.2649 281,382.5 275,372.125 269,361.75 266.125,361.25 265.625,349.625 265.125,338 270.375,323 277.875,317 c 7.5,-6 32.25,-5.5 32.25,-5.5 z"
         id="path123" /><path
         style="fill:#e7cba1;fill-opacity:1"
         d="m 316.125,280.0625 c 3.5,4.625 7.4375,16.75 7.375,23.3125 -0.0625,6.5625 0.27692,28.47991 3.28213,37.5839 3.0052,9.104 4.06586,14.76086 9.63433,22.89259 5.56846,8.13172 21.12481,25.80939 25.54423,25.72101 4.41942,-0.0884 25.36746,-20.5061 31.28948,-21.74354 5.92201,-1.23743 24.49983,-7.57896 28.87483,-6.45396 4.375,1.125 15.93806,10.78499 24.06979,11.13854 8.13172,0.35356 24.39518,-3.18198 29.87526,-6.36396 5.48007,-3.18198 18.9151,-2.65165 24.2184,0.17678 5.3033,2.82843 20.85965,18.91511 23.5113,17.67767 2.65165,-1.23744 10.07628,-36.94633 7.95496,-41.54252 -2.12132,-4.5962 -6.01041,-15.55635 -4.5962,-19.26866 1.41422,-3.71231 2.82843,-17.85445 1.59099,-23.33453 -1.23744,-5.48007 -0.88388,-30.05204 -3.18198,-36.06244 C 523.26942,257.78547 516.75,240 508.75,232.25 c -8,-7.75 -29,-22.5 -40.5,-25.5 -11.5,-3 -52.75,-9.5 -61.75,-5 -9,4.5 -39,24 -47.25,32.25 -8.25,8.25 -27.5,26 -31.75,31.5 -4.25,5.5 -7.5,5.875 -11.375,14.5625 z"
         id="path124" /><path
         style="fill:#5d8745"
         d="m 625.68593,661.96509 c -4.4209,-0.46523 -12.5209,-2.09293 -18,-3.61712 l -9.96199,-2.77125 -208.90319,-0.25469 c -164.38894,-0.20042 -209.22138,-0.51877 -210.39649,-1.49402 -3.00226,-2.49166 0.10603,-42.55226 5.29933,-68.29937 9.83784,-48.77359 29.86081,-88.27272 60.97897,-120.2927 17.29754,-17.79882 30.17543,-27.47473 49.35816,-37.08563 7.00704,-3.51066 10.17001,-5.6135 9.81907,-6.52804 -0.78349,-2.04174 -2.64014,-16.33567 -2.91393,-22.43366 l -0.24192,-5.38811 -6.5,-2.11189 c -13.43723,-4.36584 -24.08272,-13.243 -29.79319,-24.84423 -4.00016,-8.12663 -5.1524,-13.3799 -5.18236,-23.62745 l -0.0244,-8.35979 -4.99355,-5.46374 c -6.3511,-6.94911 -9.59594,-16.40264 -8.67019,-25.25972 0.32895,-3.14728 0.86135,-6.40836 1.18311,-7.24685 0.36164,-0.9424 -1.18643,-3.58366 -4.05431,-6.91731 -5.57638,-6.48204 -10.69131,-16.24912 -13.08147,-24.97938 -2.13197,-7.7872 -2.43572,-30.28838 -0.53206,-39.41342 8.79045,-42.13624 42.44039,-86.83974 87.67019,-116.46872 10.57073,-6.92463 31.72718,-17.180955 43.22925,-20.956878 17.91758,-5.88202 27.92296,-7.457512 47.74903,-7.518779 16.16751,-0.04996 18.76354,0.18279 25.5,2.286239 11.80241,3.685285 20.66853,8.85313 29.5,17.194828 6.62676,6.25926 9.02993,7.86724 14,9.36749 3.3,0.99614 10.05,3.87777 15,6.40363 7.36875,3.76009 10.72281,6.32338 18.50518,14.14233 13.2371,13.29933 18.6377,24.68716 20.53963,43.31036 0.54962,5.38169 1.29889,7.52318 3.67376,10.5 8.14117,10.20469 11.22991,21.49413 10.46216,38.2395 -0.61247,13.35848 -3.38561,24.6083 -9.59535,38.92558 -3.84957,8.87561 -4.08538,9.97754 -4.08538,19.09031 0,7.06664 0.53859,11.23646 2,15.48411 2.47324,7.1886 2.66107,19.51277 0.41915,27.50289 l -1.58084,5.6341 3.52714,6.4315 c 5.25183,9.57635 12.3307,27.87329 15.62076,40.37542 4.41814,16.78875 5.38283,25.80304 4.73047,44.20272 l -0.57521,16.2239 3.23257,2.46559 c 6.14882,4.68994 23.79583,23.03679 31.81876,33.08064 11.04507,13.82724 21.65218,30.1278 29.49208,45.32217 3.62141,7.01859 7.19626,13.75386 7.94411,14.96728 l 1.35973,2.20621 25.02442,-8.45621 c 13.76343,-4.65092 25.87647,-8.45621 26.91786,-8.45621 1.18324,0 3.59154,-2.37967 6.42063,-6.34428 5.14825,-7.21463 13.837,-15.50988 20.07434,-19.1652 6.96549,-4.08205 14.59927,-6.20796 28.7058,-7.99417 7.70648,-0.97583 17.35987,-2.96532 22.7931,-4.69751 7.6447,-2.43723 10.70961,-2.93218 16.22683,-2.62043 6.08666,0.34393 7.15941,0.73079 10.20091,3.67874 l 3.39895,3.29438 7.99116,-10.32576 c 14.16465,-18.30282 45.80799,-61.39548 71.83439,-97.82577 30.78589,-43.09237 33.64853,-46.76754 37.10318,-47.63461 5.73163,-1.43854 10.86978,4.71792 8.69693,10.42054 -1.52161,3.99343 -42.94407,62.83616 -104.32882,148.20444 -7.3126,10.1697 -13.52596,19.09056 -13.80746,19.82414 -0.2815,0.73358 1.32518,3.21291 3.57041,5.50963 10.50761,10.74862 10.87917,23.25378 0.98523,33.15921 -4.60977,4.61513 -4.93377,5.25725 -4.38481,8.69024 1.40949,8.8145 -3.18526,18.13324 -11.542,23.40862 -2.50926,1.58403 -3.86977,3.18872 -3.86977,4.56431 0,7.18421 -6.688,17.12318 -14.04943,20.8787 -7.01215,3.57733 -30.3683,9.40845 -40.90195,10.21162 l -3.45137,0.26316 -1.25235,8.71411 c -1.45074,10.09451 -4.72908,17.70713 -9.92055,23.03646 -4.14195,4.25194 -12.4845,7.23928 -36.92435,13.22206 -20.85322,5.10479 -32.51309,6.15473 -49.03801,4.41574 z m 103.49489,-59.44525 c 0.62435,-0.62435 -1.00836,-2.00316 -4.59674,-3.88191 -7.45439,-3.90288 -10.65036,-8.75523 -11.17303,-16.96371 -0.26603,-4.17789 0.12456,-7.40768 1.21003,-10.00555 0.88157,-2.10991 1.60286,-4.00624 1.60286,-4.21407 0,-0.20784 -2.59987,-0.37788 -5.77749,-0.37788 -6.49373,0 -11.10995,-2.22578 -9.25406,-4.46198 0.58508,-0.70499 3.6918,-2.24001 6.90381,-3.41117 10.62169,-3.87286 18.38304,-14.55227 25.07489,-34.50234 3.20042,-9.54127 3.18414,-9.52988 18.05285,-12.62842 18.66198,-3.88903 25,-8.05954 25,-16.45037 0,-5.91701 -1.81268,-7.3194 -7.32672,-5.66838 -14.14511,4.23533 -22.59399,6.11703 -31.77984,7.07787 -9.08501,0.95029 -11.53896,1.64706 -19.49284,5.53473 -7.31793,3.57684 -10.35251,5.78618 -15.5,11.28488 -6.9001,7.37087 -13.74079,18.2885 -18.91439,30.18702 l -3.24448,7.46183 0.57699,17.53817 c 0.55549,16.88441 2.45201,29.85205 4.77526,32.6514 0.57881,0.69742 2.25695,1.47865 3.7292,1.73605 4.89009,0.85499 39.146,0.0815 40.1337,-0.90617 z m 30.72802,-10.50973 c 4.31935,-1.63656 7.3151,-4.94747 7.3151,-8.08465 0,-4.28941 -3.06573,-5.57385 -14.51015,-6.07925 -8.15346,-0.36007 -11.14842,-0.95289 -16.14697,-3.1961 -4.97155,-2.2311 -6.53179,-2.54266 -8.21693,-1.6408 -7.68628,4.11357 -3.81985,14.87885 6.59027,18.34925 5.55382,1.85146 20.75485,2.24813 24.96868,0.65155 z m 20.39335,-24.97527 c 5.08239,-2.72001 6.53898,-10.15359 2.67175,-13.63504 -3.7317,-3.35944 -4.45429,-3.53145 -18.13245,-4.31634 -11.35783,-0.65173 -13.91095,-1.12173 -18.37106,-3.38184 -6.41698,-3.25173 -7.30381,-3.25724 -10.30365,-0.0641 -5.12375,5.45399 -1.82174,14.46877 6.89493,18.82373 6.13781,3.06653 9.0048,3.74144 19.16223,4.51088 8.36812,0.6339 14.50212,-0.0234 18.07825,-1.93733 z M 480.88904,537.82672 c 9.55356,-9.98136 21.32174,-26.85702 28.11993,-40.32415 3.87827,-7.6828 5.37768,-9.02661 7.4449,-6.67232 0.84343,0.96056 1.84206,2.75897 2.21918,3.99647 0.37711,1.2375 1.02509,2.25 1.43994,2.25 1.43774,0 8.95469,-14.547 12.56595,-24.31797 11.4096,-30.87094 14.99176,-63.40096 9.59903,-87.16995 -3.03291,-13.36781 -5.97107,-22.68139 -6.9621,-22.0689 -0.44549,0.27533 -1.10478,3.37798 -1.46508,6.89478 -0.74778,7.29868 -3.12334,16.10733 -5.23514,19.41204 -2.41827,3.78428 -5.43708,2.79516 -11.92835,-3.90834 -7.66114,-7.91164 -16.1086,-13.3726 -24.74241,-15.99504 l -6.8621,-2.0843 -4.40801,3.1656 c -16.50875,11.85568 -40.84196,11.3257 -55.10826,-1.20028 l -3.44963,-3.02882 -7.19647,1.2736 c -16.5599,2.93068 -27.24671,7.6841 -40.73534,18.1188 -7.72252,5.97408 -11.50761,7.25423 -12.64962,4.27822 -1.8601,-4.84735 12.40069,-19.24889 25.12889,-25.37693 8.68386,-4.18087 15.98053,-6.22422 29.93358,-8.38255 l 8.874,-1.37268 5.626,3.02732 c 11.91094,6.40922 13.67609,7.05127 20.62601,7.50253 7.93223,0.51504 13.68455,-0.7329 18.50701,-4.015 5.05557,-3.44076 7.4713,-7.28788 7.35526,-11.71345 -0.15247,-5.81478 -3.44717,-9.55625 -12.36227,-14.03868 -9.79545,-4.92506 -12.2692,-8.11409 -12.74842,-16.4346 -0.56843,-9.86954 -0.77376,-10.30888 -5.16495,-11.05076 -4.81313,-0.81318 -13.13896,0.33091 -13.54176,1.86083 -0.16284,0.61849 -0.75304,4.11161 -1.31157,7.76248 -2.40643,15.72999 -13.23263,28.50761 -28.7333,33.91244 -4.87555,1.70003 -7.8014,2.02632 -15.61218,1.74105 -8.72012,-0.31848 -10.31373,-0.69779 -17.17161,-4.08714 -12.9533,-6.40186 -20.58601,-17.0893 -22.89545,-32.05853 l -1.21174,-7.85422 -14.55451,0.38857 c -16.59995,0.44317 -20.55451,1.59831 -20.55451,6.00401 0,1.45098 -0.25182,2.89245 -0.5596,3.20328 -0.30779,0.31082 -2.90011,-0.32419 -5.76073,-1.41114 -9.95934,-3.78425 -18.20941,-1.96519 -25.59987,5.64453 -7.37504,7.59383 -9.7866,22.40598 -5.5092,33.83835 3.93891,10.52767 15.6116,20.50696 25.91376,22.15434 3.34987,0.53566 4.70713,0.25139 7.04215,-1.47497 1.59088,-1.17619 3.29827,-2.13852 3.7942,-2.13852 0.49593,0 0.92426,6.8625 0.95185,15.25 0.0802,24.38971 4.42758,38.85385 17.93075,59.65745 5.09327,7.84692 20.13161,24.09255 22.30213,24.09255 0.59292,0 0.73046,-2.82252 0.35436,-7.27179 -0.51837,-6.13231 -0.34654,-7.49433 1.09658,-8.69201 2.65105,-2.20017 4.50761,-0.31001 8.11165,8.25842 9.81953,23.3455 32.55536,46.13108 58.14914,58.27638 16.22405,7.69898 46.40222,18.29431 52.37432,18.38824 1.90187,0.0299 4.1834,-1.62243 8.57361,-6.20924 z M 432.24056,413.57544 c -7.87245,-1.78291 -13.0677,-3.78322 -19.01662,-7.32191 -2.475,-1.47225 -6.3,-2.90181 -8.5,-3.17681 -3.28587,-0.41073 -4.06054,-0.92834 -4.33911,-2.89924 -0.46537,-3.29257 1.5998,-6.78974 5.39442,-9.13494 4.26031,-2.63302 6.61936,-2.47654 9.52038,0.6315 5.66716,6.07158 17.78251,9.67215 32.42431,9.63622 12.43296,-0.0305 21.15007,-2.0297 31.46588,-7.21638 9.30555,-4.67874 11.39974,-4.91497 13.61394,-1.53569 1.5145,2.31143 1.49895,2.69876 -0.22695,5.65218 -2.67118,4.57101 -11.61894,10.34067 -20.85287,13.44625 -10.02241,3.37077 -28.99994,4.29304 -39.48338,1.91882 z M 285.42394,347.87672 c -3.27524,-3.27524 0.39566,-14.9485 5.68305,-18.07185 1.60904,-0.95048 4.8136,-1.72815 7.12124,-1.72815 3.41872,0 4.81074,0.61503 7.51684,3.32113 3.73482,3.73482 5.1371,8.81738 3.56996,12.93927 -1.84576,4.85473 -5.44776,3.46475 -8.97341,-3.46275 -0.88973,-1.7482 -2.1674,-3.35109 -2.83927,-3.56196 -1.85577,-0.58246 -6.27841,4.36177 -6.27841,7.01885 0,2.4842 -1.66779,4.74546 -3.5,4.74546 -0.605,0 -1.64,-0.54 -2.3,-1.2 z m 507.31185,188.00354 c 8.87861,-10.55162 -7.11875,-22.63619 -20.75575,-15.67911 -3.21936,1.64239 -6.40728,2.19877 -14.04995,2.45207 -10.73003,0.35563 -12.70615,1.19105 -12.70615,5.37163 0,6.6137 8.82514,9.78633 30.5,10.96472 13.3085,0.72354 13.87365,0.62024 17.01185,-3.10931 z M 523.89229,371.32672 c 0.95572,-5.73985 1.09535,-28.81642 0.17991,-29.73373 -0.35845,-0.35919 -2.63358,0.85971 -5.05585,2.70866 -5.91201,4.51274 -13.39695,7.61211 -20.84207,8.63029 -9.25445,1.26563 -10.56973,4.71832 -2.57439,6.75795 7.41876,1.89255 14.65994,5.85722 20.63531,11.29818 3.01881,2.74882 5.79867,5.01829 6.17747,5.04326 0.3788,0.025 1.04463,-2.09211 1.47962,-4.70461 z M 403.76431,339.21753 c 11.88498,-5.6226 18.1493,-16.25764 17.22072,-29.23587 -1.287,-17.98741 -15.63524,-30.75879 -33.32826,-29.66548 -16.57441,1.02418 -27.91119,13.51154 -27.92627,30.76054 -0.007,8.1884 1.24559,12.22094 5.81265,18.71055 5.57327,7.9194 14.20767,12.10898 25.18079,12.2182 5.71675,0.0569 8.10733,-0.45419 13.04037,-2.78794 z m -18.21489,-15.59994 c -14.00676,-6.09264 -5.27565,-28.30986 9.24248,-23.51844 10.98745,3.62618 11.51031,19.12213 0.79626,23.59875 -4.07257,1.70163 -5.97715,1.68639 -10.03874,-0.0803 z m 117.94091,14.88403 c 10.29677,-3.50846 18.57163,-14.53782 19.48991,-25.97764 0.73043,-9.0997 -1.64139,-16.06619 -7.7428,-22.74211 -6.82238,-7.46477 -13.01676,-10.14653 -23.5135,-10.1798 -7.00767,-0.0222 -8.65772,0.33902 -13.30245,2.91213 -9.24127,5.11952 -15.2124,15.87479 -15.18281,27.34747 0.0207,8.01765 1.42868,10.11514 9.84763,14.66992 4.71754,2.55226 9.14144,5.98744 12.47386,9.68602 4.6359,5.14527 5.58002,5.73769 9.23563,5.79513 2.23952,0.0352 6.15206,-0.64482 8.69453,-1.51112 z m -20.0683,-18.04875 c -4.03452,-2.04815 -6.19809,-5.97511 -6.19809,-11.24977 0,-4.88406 3.5259,-9.48478 8.53619,-11.13832 9.94123,-3.28091 18.49319,6.82574 13.92379,16.45504 -3.08735,6.5061 -10.09606,9.06318 -16.26189,5.93305 z M 318.22394,298.42609 c 3.86707,-0.96443 11.56332,-1.71111 19,-1.84335 l 12.5,-0.22229 3.31187,-5.89186 c 6.84173,-12.17153 17.76929,-20.13358 31.01261,-22.59643 17.63531,-3.27962 38.30715,7.92008 45.16706,24.47086 l 2.2522,5.43384 11.25581,-0.10007 11.2558,-0.10007 3.07159,-6.58541 c 7.32922,-15.7137 21.98447,-24.94228 37.71424,-23.74911 6.34726,0.48147 5.89538,-1.27945 -1.04118,-4.05732 -5.05649,-2.02496 -7.59805,-2.38549 -16.16243,-2.29268 -8.80851,0.0954 -10.50718,-0.16105 -12.75,-1.92526 -1.85619,-1.46008 -2.58757,-2.97486 -2.58757,-5.35921 0,-4.24089 5.27428,-9.16855 10.72862,-10.02355 2.07426,-0.32516 4.97078,-0.77848 6.43672,-1.00739 1.46594,-0.22892 5.45778,0.0335 8.87077,0.58315 10.58909,1.70532 19.52979,7.32288 22.97205,14.43363 1.97586,4.08158 2.00894,4.54941 0.52465,7.4197 -0.87129,1.6849 -2.02261,3.06345 -2.55849,3.06345 -0.53588,0 -0.97432,0.45585 -0.97432,1.013 0,1.32436 8.74978,5.57056 9.64143,4.67891 1.22417,-1.22418 -3.51714,-17.99811 -7.20447,-25.48815 -6.79831,-13.80936 -21.73726,-26.72307 -38.22841,-33.04585 -13.10203,-5.02338 -22.77196,-6.57453 -41.20855,-6.61025 -23.28782,-0.0451 -28.94065,1.15731 -39.84299,8.47512 -12.0982,8.12048 -22.49439,16.94853 -38.0152,32.28107 -19.22162,18.98846 -44.14181,47.09503 -44.14181,49.78595 0,1.25564 1.48681,1.13332 9,-0.74043 z m 39.65499,-27.17811 c -5.69405,-6.29185 5.37658,-19.73719 20.84501,-25.31637 7.81925,-2.82026 21.45673,-3.12211 26.1893,-0.57967 6.15338,3.30573 7.93406,8.49845 4.40765,12.85338 -1.77043,2.18639 -2.62415,2.35343 -12.25,2.39688 -11.99492,0.0541 -18.59865,1.87529 -25.27247,6.96953 -7.9457,6.06509 -11.02228,6.87764 -13.91949,3.67625 z m 383.14271,171.89794 c -16.14008,-5.16062 -25.4961,-16.12174 -26.5698,-31.12805 -1.24663,-17.42336 9.3718,-30.19621 25.09604,-30.18787 7.20594,0.004 11.86614,1.71869 17.0577,6.27694 9.9625,8.7472 11.1128,23.58225 2.58018,33.27582 -2.16102,2.45505 -5.75958,5.19612 -7.9968,6.09128 -6.19659,2.47938 -4.09313,3.92791 4.91862,3.38715 13.7114,-0.82276 22.31592,-7.28612 26.14599,-19.63981 2.25283,-7.2664 2.42265,-13.59412 0.90151,-33.59242 -1.5238,-20.03326 -0.90701,-18.55224 -7.72643,-18.55224 -9.37112,0 -21.43842,-1.85851 -29.19336,-4.49614 -12.09049,-4.11224 -19.70341,-8.98622 -29.6667,-18.99335 -7.9868,-8.02194 -9.79934,-10.52401 -14.20077,-19.60308 -8.87587,-18.30873 -10.30042,-34.80944 -4.67884,-54.19575 7.42251,-25.59692 25.24717,-48.09755 53.76666,-67.87136 14.14159,-9.80498 13.43161,-8.69011 12.63494,-19.84032 -3.1448,-44.01509 4.39662,-76.792077 21.69925,-94.310587 6.12715,-6.203597 11.06462,-8.689414 17.25941,-8.689414 5.87352,0 9.25432,2.275574 12.32592,8.296423 12.48316,24.469008 11.39326,63.772508 -2.58796,93.326188 -6.26636,13.2459 -11.15962,19.87686 -22.70529,30.76845 l -10.26799,9.68629 2.26198,16.21133 c 1.24409,8.91622 2.57385,16.49823 2.95501,16.8489 0.38117,0.35067 4.26211,1.3508 8.62432,2.2225 4.36221,0.87171 10.42529,2.83479 13.47351,4.36242 7.12923,3.57284 17.94614,13.7503 21.44323,20.17561 8.92525,16.39862 9.88211,35.64984 2.54325,51.16786 -3.99292,8.44303 -16.49536,20.84699 -28.15591,27.93414 -8.40458,5.10821 -8.74419,5.45383 -8.26721,8.41347 1.28323,7.96249 2.67423,27.13293 2.67307,36.83981 -0.002,19.89929 -6.23508,32.88524 -19.96778,41.60323 -9.71756,6.16904 -24.79564,7.91519 -36.37575,4.21258 z m 38.53871,-98.8192 c 0.51145,-0.84408 -1.67604,-32.96144 -3.59276,-52.75 -1.14492,-11.82024 -1.44376,-13.02652 -3.29306,-13.29225 -2.70755,-0.38905 -9.71629,4.79589 -13.44991,9.95001 -6.2724,8.6588 -6.74034,21.49181 -1.21212,33.24157 1.78537,3.79463 3.04723,7.09821 2.80414,7.3413 -2.32163,2.32163 -17.28753,-11.39911 -20.72315,-18.99898 -2.03145,-4.49374 -2.36955,-6.81119 -2.36955,-16.24165 0,-10.31965 0.19956,-11.42133 3.22652,-17.81211 4.13213,-8.72409 13.28746,-18.36624 21.57412,-22.72129 3.40965,-1.79194 6.67781,-3.62784 7.26258,-4.07977 1.22495,-0.94668 -1.10528,-24.78199 -2.56872,-26.27484 -1.20155,-1.22569 -16.91238,11.48175 -26.04441,21.06561 -18.64229,19.56463 -26.72182,41.19797 -22.94481,61.43591 3.42105,18.33067 19.45677,34.08887 38.99472,38.31989 6.98929,1.51356 21.59065,2.04737 22.33641,0.8166 z m 22.96947,-9.61323 c 2.50428,-2.43388 5.82244,-6.83533 7.37368,-9.78101 2.59839,-4.93411 2.82044,-6.22177 2.82044,-16.35576 0,-9.9954 -0.24326,-11.45664 -2.6636,-16 -4.16926,-7.82635 -14.80764,-16.5 -20.23755,-16.5 -2.25157,0 -2.41392,0.92275 -1.49553,8.5 0.46663,3.85 1.73829,17.6965 2.8259,30.77001 1.08761,13.0735 2.25078,24.21222 2.58482,24.7527 0.86536,1.40018 3.41917,-0.1643 8.79184,-5.38594 z M 786.84681,164.82512 c 14.42051,-15.20573 22.41385,-31.90687 22.35517,-46.7085 -0.0398,-10.03077 -5.69323,-18.268254 -11.09306,-16.16335 -8.22251,3.20521 -16.55191,19.95789 -19.43629,39.09162 -1.92203,12.75001 -1.96671,31.03183 -0.0758,31.03183 0.75508,0 4.46758,-3.26322 8.25,-7.2516 z m 142.87713,139.74719 c -2.23282,-0.79077 -6.04752,-3.55673 -8.63457,-6.26075 -11.08839,-11.58978 -8.00727,-29.68819 6.59068,-38.71341 4.32663,-2.67495 5.69877,-3.00498 11.96547,-2.87798 3.89313,0.0789 7.97842,0.3039 9.07842,0.5 1.95254,0.34809 2.00632,-0.26309 2.26634,-25.75745 0.20528,-20.12775 -0.024,-26.34803 -1,-27.13492 -3.81035,-3.07192 -48.25748,-27.15994 -48.91049,-26.50693 -0.42679,0.42679 -0.90645,20.79645 -1.06591,45.26591 -0.28298,43.4226 -0.34182,44.5859 -2.45231,48.48994 -5.04509,9.33251 -13.73506,14.44279 -24.61975,14.47804 -7.84262,0.0254 -11.84158,-1.39173 -17.19759,-6.09437 -5.25069,-4.61017 -7.47362,-9.91881 -7.48856,-17.88367 -0.0207,-11.05839 5.28406,-19.53539 14.96827,-23.91909 4.92758,-2.23054 13.18963,-2.71971 17.60193,-1.04216 2.05923,0.78292 2.93352,0.72135 3.54979,-0.25 0.44971,-0.70881 0.82455,-23.23739 0.83297,-50.0635 l 0.0153,-48.77475 2.55063,-0.96975 c 1.98763,-0.7557 3.47753,-0.4975 6.75,1.16975 11.65749,5.93924 68.5043,38.32624 70.49071,40.16025 l 2.29134,2.11555 -0.29134,52.03685 -0.29134,52.03685 -2.81095,5.72425 c -6.31463,12.85917 -20.93924,18.96384 -34.18905,14.27134 z"
         id="path120" /><path
         style="fill:#5f8944;fill-opacity:1"
         d="m 184.375,653.625 423.125,0.625 39.5,1 c 0,0 45.5,-8.25 46.75,-8.5 1.25,-0.25 -7.25,-30 -7.25,-30 l -9.75,-25 -2.5,-42.25 V 527.75 L 628,542 c 0,0 -15.5,-27.25 -16.5,-28.5 -1,-1.25 -41.25,-57 -41.25,-57 l -21,-12.25 -12.75,41.5 -28,32 L 478,556.25 423.25,541 366,487.75 347.75,479 l -20.5,-21.25 -15.5,-27 -30.5,14 -35.75,27 -24.5,34.5 c 0,0 -11.25,27.25 -12.5,28 -1.25,0.75 -14,31.75 -14,31.75 l -7,42 z"
         id="path125" /><path
         style="fill:#5e8843;fill-opacity:1"
         d="m 269.75,326 14.75,-15.5 15.25,-11.25 23.5,-28.25 36.5,-37.5 35,-28.25 25.75,-3.5 41.5,2.25 28.75,12.75 16.5,13.75 L 526,260 538.25,228.25 535.5,196.75 523,176.75 517.75,148.5 497.10647,124.14229 459.45304,109.46982 440.36115,92.676037 395.63665,87.195959 349.85149,97.625784 309.36962,122.02097 288.5,140.75 l -31.5,37.5 -15.25,32 -6,30.75 2.25,30.75 10.75,15 7,8 -3.25,12.25 4,13.5 z"
         id="path126" /><path
         style="fill:#1f603d"
         d="m 621.72394,660.36602 c -1.65,-0.22608 -7.5,-1.59072 -13,-3.03255 -7.01202,-1.8382 -13.73498,-2.79111 -22.5,-3.18913 l -12.5,-0.56762 -0.23327,-7 c -1.39826,-41.95928 -5.52766,-78.9381 -11.83696,-106 -3.91842,-16.80696 -4.02728,-18.10986 -1.62067,-19.39783 1.68381,-0.90115 2.58089,-0.6449 5.06766,1.44759 9.58298,8.06354 15.99133,41.15274 20.78012,107.29701 l 0.5319,7.34677 5.50202,2.43326 c 15.06931,6.66436 39.34698,11.12883 53.8092,9.89507 12.71792,-1.08496 40.5,-7.34206 40.5,-9.12145 0,-0.28318 -2.06537,-4.84708 -4.58971,-10.142 -5.27914,-11.07321 -9.57797,-23.65679 -11.92842,-34.917 -2.21688,-10.62025 -3.12272,-39.53214 -1.57108,-50.1439 0.66016,-4.51483 0.94691,-8.61876 0.63722,-9.11984 -0.8818,-1.42678 -14.9923,3.32105 -36.94312,12.43043 -24.6249,10.21909 -24.8231,10.27368 -27.51823,7.57855 -1.14766,-1.14766 -2.08666,-2.95213 -2.08666,-4.00994 0,-2.92066 4.45797,-7.60168 9.49376,-9.96878 2.47843,-1.165 4.50624,-2.60102 4.50624,-3.19116 0,-1.56528 -10.15274,-21.49127 -15.04246,-29.52267 -2.30853,-3.79176 -7.1308,-11.16911 -10.71617,-16.39411 -11.91762,-17.36771 -34.57534,-42.72201 -37.35134,-41.79668 -0.60779,0.2026 -2.20478,4.62723 -3.54886,9.83252 -4.91485,19.03402 -18.55713,42.73235 -33.85132,58.80392 -6.48346,6.81301 -9.1797,10.56322 -11.92392,16.58501 -6.79629,14.91347 -24.75927,43.74355 -45.40579,72.875 -14.10393,19.90011 -31.22684,42.97129 -32.6075,43.93492 -1.43457,1.00125 -22.31012,0.96674 -22.93102,-0.0379 -0.27303,-0.44177 3.63959,-6.17927 8.69472,-12.75 10.02751,-13.03389 42.93581,-57.22163 44.03797,-59.13215 0.44479,-0.771 -1.5076,-2.16735 -5.58524,-3.99457 -6.25462,-2.80273 -20.45813,-12.80458 -32.76907,-23.07539 -17.14663,-14.30514 -37.63753,-36.62024 -51.06184,-55.60762 -2.56749,-3.63148 -5.11791,-5.70896 -10.07132,-8.20373 -16.03213,-8.07456 -34.21889,-27.25944 -43.71152,-46.11047 -1.71081,-3.39744 -3.55142,-6.44962 -4.09024,-6.78263 -1.40341,-0.86736 -15.15117,6.26385 -25.61837,13.28869 -36.62565,24.58056 -66.96008,67.86605 -79.89104,113.9999 -6.29761,22.46805 -11.19878,55.7475 -11.65978,79.17119 -0.0976,4.95891 -0.63151,8.80607 -1.28159,9.23469 -2.04576,1.34882 -9.31677,0.82874 -10.63595,-0.76077 -0.96563,-1.16352 -1.09854,-4.78665 -0.55944,-15.25 3.6491,-70.82546 25.18283,-127.03124 65.18927,-170.15229 13.85813,-14.93703 34.39751,-30.1863 52.14182,-38.7122 5.0875,-2.44448 9.239,-4.98786 9.22555,-5.65197 -0.0134,-0.6641 -0.49661,-3.23246 -1.0737,-5.70746 -0.57709,-2.475 -1.35359,-8.96532 -1.72555,-14.42294 l -0.6763,-9.92294 -7.21506,-2.2004 c -13.14605,-4.00918 -23.30454,-12.61567 -29.25884,-24.78872 -3.70435,-7.5732 -5.18326,-14.95647 -4.86036,-24.26467 0.24241,-6.98787 0.19102,-7.1482 -3.26333,-10.18115 -7.78422,-6.83464 -11.87956,-19.31588 -9.90707,-30.1935 l 1.08997,-6.01079 -4.98098,-5.98525 c -24.07487,-28.92889 -18.52781,-76.45422 14.27915,-122.3391 28.48263,-39.83673 72.85964,-70.92025 115.8991,-81.180596 39.69203,-9.462337 69.74615,-4.031173 89.36925,16.150166 5.49164,5.64786 7.10139,6.65888 15,9.4209 19.94305,6.97377 33.04005,17.20356 42.82577,33.45032 4.42062,7.33935 7.083,15.72654 8.59225,27.0678 1.01585,7.6337 1.61042,9.25613 5.04872,13.77678 12.95925,17.03868 12.93936,44.59614 -0.0539,74.71353 -3.91275,9.06945 -4.06,9.80138 -4.06228,20.19268 -0.002,7.64456 0.46111,11.86401 1.59034,14.5 2.55287,5.95925 2.99259,18.90819 0.9142,26.92152 l -1.76797,6.8165 4.4944,8.98993 c 9.41796,18.8383 16.22369,39.92002 18.84535,58.3762 1.18896,8.3701 0.81928,33.94875 -0.53851,37.26093 -0.47598,1.1611 0.59128,2.7842 3.6165,5.5 28.28408,25.39125 49.21323,52.78531 65.08828,85.19374 2.78599,5.68751 5.58196,10.53914 6.21326,10.7814 0.6313,0.24225 12.45516,-3.39867 26.27526,-8.09094 13.82009,-4.69227 25.99502,-8.5314 27.0554,-8.5314 1.23924,0 3.28733,-2.05409 5.73322,-5.75 7.72398,-11.67145 19.23624,-20.52935 31.97791,-24.60481 2.75,-0.87959 10.6267,-2.28447 17.50378,-3.12195 7.08664,-0.86299 16.61591,-2.82253 21.99534,-4.52296 14.09385,-4.45507 22.86577,-3.90782 26.50991,1.65385 0.84539,1.29023 2.15958,2.34587 2.92041,2.34587 1.99333,0 40.54295,-51.49696 80.09811,-107 33.76954,-47.38478 34.96222,-48.86143 39.54814,-48.96457 2.16801,-0.0487 5.92431,4.15117 5.92431,6.62398 0,1.11679 -1.79823,4.81274 -3.99608,8.21322 -7.6375,11.81671 -44.61562,63.99246 -106.64703,150.47788 -5.06934,7.06777 -9.00159,13.41182 -8.73832,14.09788 0.26327,0.68606 1.78725,2.21486 3.38662,3.39733 11.0281,8.15342 11.29426,26.48493 0.50404,34.71504 -3.42865,2.61515 -3.50923,2.83887 -3.50923,9.7422 0,9.58277 -2.5093,14.68684 -9.50349,19.33073 -4.86398,3.2295 -5.30316,3.85111 -5.9001,8.35109 -0.90113,6.79303 -5.76735,13.60504 -12.33967,17.2738 -6.13606,3.42522 -18.87278,7.1093 -32.25674,9.33023 -5.225,0.86703 -10.41047,1.74721 -11.52326,1.95595 -1.72843,0.32422 -2.19358,1.62856 -3.19207,8.95096 -2.02853,14.87624 -7.59288,23.9793 -16.7524,27.40632 -8.2653,3.09245 -33.75412,9.8942 -43.40151,11.5818 -7.97757,1.39551 -30.84446,1.87228 -38.63076,0.80546 z m 106.48689,-56.13977 c 5.38023,-0.77885 6.7516,-3.50422 2.31314,-4.59698 -4.7998,-1.18172 -11.0351,-5.38782 -13.21434,-8.9139 -4.64581,-7.51708 -3.49625,-18.62905 2.51359,-24.29705 5.1812,-4.88651 4.61988,-7.05797 -0.82267,-3.18253 -3.55401,2.53068 -11.54776,3.56896 -14.65881,1.90397 -2.94192,-1.57446 -2.0391,-2.5963 4.09362,-4.63326 10.42655,-3.46315 18.10573,-13.46633 25.27932,-32.92978 2.02712,-5.5 3.98348,-10.30912 4.34747,-10.68693 0.36398,-0.37781 5.28723,-1.62646 10.94055,-2.77479 19.23328,-3.90676 27.27999,-8.50406 28.76802,-16.43594 1.5415,-8.2169 -2.8494,-11.42421 -11.54058,-8.42976 -9.25418,3.18842 -15.98452,4.6752 -28.5062,6.29723 -16.46482,2.13282 -25.86824,6.54452 -35.92995,16.8569 -12.00385,12.30289 -21.85601,31.3961 -23.05157,44.67329 -1.25618,13.95047 2.37473,42.32179 5.86265,45.8097 0.81514,0.81515 4.32536,1.83351 7.80047,2.26304 6.44793,0.79697 27.70941,0.24876 35.80529,-0.92321 z m 33.73793,-11.50723 c 3.69427,-1.91038 7.27518,-6.20314 7.27518,-8.7214 0,-0.99515 -1.04512,-3.0244 -2.3225,-4.50944 -2.20343,-2.56165 -2.93392,-2.73574 -14.25,-3.39618 -9.28729,-0.54202 -12.85944,-1.17415 -16.13766,-2.8557 -5.43647,-2.78861 -7.81651,-2.72382 -10.83529,0.29496 -1.79006,1.79006 -2.45455,3.54031 -2.45455,6.46521 0,6.99893 5.23646,11.32683 17.5,14.46362 3.99419,1.02164 18.12366,-0.1374 21.22482,-1.74107 z m 15.59138,-23.09111 c 10.16061,-3.62373 12.37731,-13.02801 4.4531,-18.8921 -2.23992,-1.65759 -5.10457,-2.17036 -15.93877,-2.85305 -10.78452,-0.67955 -14.2048,-1.28859 -18.64014,-3.31915 -7.13508,-3.26655 -9.44764,-3.15831 -12.6015,0.58983 -6.15596,7.31595 -0.5657,18.1358 11.64517,22.53905 8.52659,3.07469 25.00984,4.10107 31.08214,1.93542 z M 482.46492,537.82672 c 9.6043,-10.58339 18.81447,-23.6348 25.75902,-36.50221 3.025,-5.60496 6.01435,-10.20365 6.64301,-10.21932 1.37117,-0.0342 2.35699,2.26386 2.35699,5.4943 0,3.45982 1.99706,4.12325 4.12712,1.37105 3.33577,-4.31007 10.60873,-19.21277 13.76917,-28.2138 4.42258,-12.59568 6.98477,-23.24738 9.17852,-38.15767 3.10494,-21.1034 2.41737,-33.44103 -3.0758,-55.19161 -4.72394,-18.70472 -7.01716,-21.24561 -8.22067,-9.10851 -1.31277,13.23904 -4.71891,23.78212 -7.68021,23.77267 -0.87897,-0.003 -5.20402,-3.49031 -9.61122,-7.75 -8.54564,-8.25962 -17.09231,-13.26573 -26.2612,-15.38216 -4.90199,-1.13151 -5.2701,-1.06626 -8.68684,1.53982 -1.96237,1.49677 -6.1489,3.93101 -9.30341,5.40942 -5.22629,2.44939 -6.80077,2.68802 -17.73546,2.68802 -11.02912,0 -12.47979,-0.22469 -17.93013,-2.77715 -3.26158,-1.52742 -7.78064,-4.29349 -10.04237,-6.1468 l -4.11223,-3.36967 -10.45763,2.32852 c -17.4725,3.89046 -23.56976,6.73284 -37.44674,17.45668 -7.7431,5.9837 -9.82548,6.92648 -11.02217,4.99018 -1.72424,-2.78988 11.22554,-16.46649 20.85302,-22.02343 7.07446,-4.08334 18.04818,-7.42696 31.30226,-9.53759 l 11.14402,-1.7746 6.85598,4.04218 c 10.52186,6.20353 18.40353,8.00623 27.49813,6.28939 10.50715,-1.9835 18.85786,-9.50128 18.85786,-16.97692 0,-5.86957 -4.16762,-10.62279 -13.50976,-15.40802 -9.81751,-5.02874 -12.49024,-9.15212 -12.49024,-19.26948 0,-5.3535 -0.30588,-6.41663 -2.12655,-7.39102 -2.51603,-1.34654 -16.33013,-0.87559 -17.813,0.60728 -0.55216,0.55216 -1.43639,4.05763 -1.96495,7.78992 -4.22585,29.83992 -35.51795,45.53933 -62.01938,31.11544 -11.10298,-6.043 -18.52746,-17.45483 -19.8403,-30.49566 -0.70643,-7.01708 -0.85565,-7.3439 -3.73582,-8.18189 -4.08332,-1.18805 -24.51124,0.0468 -30.57792,1.84842 -4.50904,1.33904 -4.92208,1.71917 -4.92208,4.52995 0,2.5325 -0.30557,2.94127 -1.75,2.34106 -4.22192,-1.75437 -10.77537,-3.48601 -13.15893,-3.47702 -4.01934,0.0151 -12.20323,4.34562 -16.29172,8.6207 -6.02234,6.29717 -8.2936,12.4288 -8.29501,22.39374 -10e-4,7.60957 0.34993,9.23747 3.27134,15.17169 3.57562,7.26312 11.32219,15.19702 17.88263,18.31509 5.51423,2.62081 12.71571,3.12919 15.79024,1.11468 1.3646,-0.89412 2.6475,-1.62567 2.85089,-1.62567 0.2034,0 0.16709,3.5019 -0.0807,7.782 -1.42413,24.60107 6.88168,51.13079 22.29662,71.218 5.49877,7.16544 19.03854,20 21.09893,20 1.3374,0 1.47032,-0.6316 0.78919,-3.75 -0.45049,-2.0625 -0.83807,-6 -0.86129,-8.75 -0.0678,-8.03158 2.18397,-6.40687 8.4224,6.07697 6.84724,13.70215 12.59269,21.69602 22.70221,31.58646 17.86345,17.47633 40.20477,29.44051 73.42312,39.3194 6.82553,2.02986 12.86006,3.84109 13.41006,4.02496 2.52473,0.84405 3.71521,-0.0158 10.74098,-7.75779 z M 432.72394,412.4815 c -3.85,-0.7877 -11.0591,-3.45101 -16.02022,-5.91848 -4.96112,-2.46746 -10.26274,-4.4863 -11.78138,-4.4863 -5.40094,0 -4.42597,-6.36646 1.53121,-9.99856 4.33022,-2.64015 5.38799,-2.53141 8.57676,0.88167 5.81141,6.22019 16.97647,9.47012 32.69363,9.51646 13.42052,0.0396 19.2835,-1.29224 31.20418,-7.08824 10.31528,-5.01543 13.29582,-5.0962 13.29582,-0.36031 0,5.98341 -13.7594,14.50398 -28.20784,17.46784 -9.35918,1.91988 -21.86706,1.91425 -31.29216,-0.0141 z M 286.30798,346.67798 c -1.65278,-1.99148 -0.67689,-7.86337 2.04217,-12.28765 3.79537,-6.17558 12.65576,-6.7383 17.39602,-1.10482 2.09881,2.4943 2.52084,3.91538 2.27704,7.66749 -0.37797,5.81695 -2.88527,6.81499 -4.82348,1.91999 -1.83703,-4.63947 -3.91827,-6.79627 -6.5582,-6.79627 -2.48127,0 -6.41759,4.25904 -6.41759,6.94373 0,0.9207 -0.58618,2.47565 -1.30261,3.45544 -1.18017,1.61397 -1.42583,1.63297 -2.61335,0.20209 z m 505.82117,191.82504 c 4.29687,-3.61557 5.82196,-9.11943 3.67655,-13.2682 -2.17564,-4.20723 -8.53548,-8.28929 -13.81346,-8.86618 -3.19962,-0.34971 -5.64537,0.17883 -9.7683,2.11101 -4.71634,2.21028 -6.87887,2.57892 -15.17742,2.5873 -9.25823,0.009 -9.7672,0.1239 -11.75,2.64463 -2.88529,3.66805 -2.59702,6.0407 1.19463,9.83235 4.60844,4.60844 12.43266,6.07361 39.40606,7.37919 2.1118,0.10222 4.19642,-0.70732 6.23194,-2.4201 z M 524.39451,375.32672 c 1.79473,-4.40248 2.30659,-32.34731 0.63309,-34.56329 -1.29563,-1.71562 -1.58304,-1.64102 -5.33652,1.38527 -6.03777,4.86801 -15.26041,8.83256 -22.24536,9.56263 -6.6567,0.69576 -8.56749,1.98242 -8.04854,5.41959 0.26126,1.73044 1.93457,2.7025 8.34744,4.84923 8.59384,2.8768 14.90039,6.73663 20.42549,12.5011 1.89539,1.97751 3.81903,3.59547 4.27475,3.59547 0.45572,0 1.33306,-1.2375 1.94965,-2.75 z M 403.42539,341.20469 c 13.65983,-5.85529 20.98924,-19.60426 18.59384,-34.87952 -3.68495,-23.49868 -31.38553,-35.58328 -50.44663,-22.00775 -5.21626,3.71508 -10.18469,10.56409 -11.9723,16.50388 -1.83859,6.10915 -1.74142,15.82774 0.21567,21.57148 1.79588,5.27065 8.66798,13.44545 14.15206,16.83479 8.29228,5.12492 20.24267,5.927 29.45736,1.97712 z m -20.27837,-21.05105 c -2.2863,-2.2863 -2.92308,-3.82203 -2.92308,-7.04966 0,-7.8152 4.07891,-12.02726 11.64705,-12.02726 2.73236,0 4.36755,0.8146 7.07996,3.52701 3.27005,3.27004 3.48849,3.86874 2.99831,8.21756 -0.73141,6.48909 -4.88799,10.25543 -11.31802,10.25543 -3.70793,0 -5.10794,-0.54679 -7.48422,-2.92308 z M 505.82057,339.137 c 14.67172,-6.49 22.31908,-24.33762 17.04517,-39.78052 -2.25001,-6.58842 -9.30547,-14.53981 -16.0342,-18.07027 -4.4891,-2.35536 -6.258,-2.68167 -14.6076,-2.69469 -11.01494,-0.0172 -14.50267,1.27762 -20.9313,7.77051 -10.91423,11.02335 -13.27296,30.52825 -4.37582,36.18476 1.75608,1.11646 5.98669,3.60493 9.40136,5.52993 4.13508,2.33113 7.56251,5.2912 10.26295,8.86349 l 4.05447,5.36349 5.46513,-0.64232 c 3.00582,-0.35327 7.37975,-1.48925 9.71984,-2.52438 z m -23.23631,-20.52045 c -5.34273,-3.7422 -5.47271,-12.58459 -0.24959,-16.97955 4.9612,-4.17457 13.43455,-3.04846 15.779,2.09704 3.66946,8.0536 -0.94118,16.34268 -9.0903,16.34268 -2.39493,0 -5.29253,-0.65708 -6.43911,-1.46017 z M 281.46003,306.595 c 6.46826,-3.23594 7.94815,-4.58669 15.1223,-13.80262 20.78825,-26.70467 53.72087,-60.69987 74.14161,-76.53381 14.63305,-11.34625 46.91299,-33.0734 58.5,-39.37547 11.71706,-6.37281 24.31312,-11.43563 34.72348,-13.95664 14.31759,-3.46719 36.14631,-2.73894 50.02652,1.66899 3.47732,1.10429 2.90478,-2.00744 -2.27208,-12.34872 -6.00763,-12.00083 -13.87586,-19.37845 -27.97792,-26.23342 -11.82915,-5.75012 -17.14638,-7.07147 -28.30113,-7.03296 -17.85426,0.0617 -36.74585,7.75303 -64.8087,26.38573 -51.45324,34.16305 -96.89714,85.7614 -123.67182,140.42064 -8.85702,18.08118 -9.76475,22.37183 -6.21162,29.36098 3.2759,6.44384 3.38451,6.45028 8.67555,0.51387 3.35308,-3.76208 7.13124,-6.60391 12.05381,-9.06657 z m 37.57929,-6.99253 c 4.25939,-0.88837 12.45257,-1.52575 19.61272,-1.52575 h 12.29735 l 3.10042,-6.29786 c 4.04096,-8.20834 10.70265,-14.85241 18.97517,-18.92496 6.30337,-3.10314 7.24333,-3.27718 17.69896,-3.27718 10.42538,0 11.40889,0.18059 17.61049,3.23363 8.3944,4.13255 16.03402,12.10299 20.01402,20.8807 2.60997,5.75616 3.2653,6.51515 5.18167,6.00126 1.2066,-0.32355 6.59246,-0.59443 11.96857,-0.60194 9.74269,-0.0136 9.77812,-0.0227 10.80178,-2.76365 4.22883,-11.32316 11.16703,-19.74913 19.72086,-23.94964 5.20734,-2.55715 6.66794,-2.80036 16.81766,-2.80036 10.81335,0 11.30736,0.0986 18.20053,3.6328 3.89702,1.99804 7.33274,3.38554 7.63495,3.08333 2.2025,-2.20249 -1.32323,-17.20545 -6.63085,-28.21613 -3.29483,-6.83514 -5.68606,-10.06693 -12.20852,-16.5 -11.44011,-11.28333 -21.79607,-16.97601 -39.36901,-21.64119 -11.07466,-2.94004 -39.06725,-3.7243 -52.06556,-1.4587 -10.48021,1.8267 -13.93125,3.75789 -31.17659,17.4463 -23.2264,18.43584 -71.38085,70.11276 -69.61696,74.70939 0.36634,0.95467 1.30308,1.36668 2.36203,1.0389 0.96521,-0.29876 5.04685,-1.22979 9.07031,-2.06895 z m 39.75605,-29.09718 c -2.16905,-2.16905 -1.97656,-4.06155 0.91495,-8.99555 2.93277,-5.00439 9.94157,-10.41132 17.55598,-13.54354 7.72963,-3.17962 24.45478,-3.38984 28.52465,-0.35854 3.52844,2.62803 4.57493,5.54934 3.07161,8.57448 -1.12318,2.26019 -1.83395,2.42743 -12.66429,2.97997 -12.68644,0.64723 -19.66025,2.72654 -25.89261,7.72016 -6.74943,5.40792 -9.01293,6.12039 -11.51029,3.62302 z m 138.02906,-7.25922 c -6.61497,-3.51803 -7.33668,-3.67515 -17.5,-3.80988 -5.83027,-0.0773 -11.15262,-0.18979 -11.82744,-0.25 -0.67482,-0.0602 -1.96581,-1.23713 -2.86887,-2.61537 -2.29398,-3.50106 -0.42513,-7.76767 4.43808,-10.13219 5.12568,-2.49213 16.56508,-2.96683 23.42662,-0.97212 11.49075,3.34045 20.30688,12.20762 18.18182,18.2871 -1.44011,4.11993 -5.42361,3.97395 -13.85021,-0.50754 z m -233.83235,2.83065 c 26.49196,-48.37969 62.33446,-90.34209 102.23186,-119.68737 32.46237,-23.87667 58.28649,-38.16039 74.78751,-41.3661 3.73708,-0.72602 6.13793,-1.67277 5.91877,-2.33402 -0.66449,-2.00491 -13.28158,-6.538987 -22.8398,-8.207706 -47.1243,-8.227178 -108.91418,21.397526 -148.52519,71.209306 -20.29796,25.52516 -31.8498,51.71672 -33.04812,74.9302 -0.85518,16.56648 1.23503,26.1396 8.36559,38.31422 2.13039,3.6374 2.76922,4.13376 3.86108,3 0.71958,-0.74719 4.88132,-7.88353 9.2483,-15.85853 z m 266.22776,-28 c 4.31819,-16.23218 3.54076,-32.14726 -2.11157,-43.22673 -3.11363,-6.10323 -12.41793,-15.39805 -18.28821,-18.26959 -10.09977,-4.94047 -32.50525,-4.45319 -49.10079,1.06785 -8.68651,2.88985 -31.75877,13.83604 -33.44434,15.86704 -0.82486,0.99389 1.93133,1.38053 13.20327,1.85216 17.61234,0.73692 29.9813,3.71466 44.28026,10.66016 17.89394,8.69171 29.93153,19.6848 37.51365,34.25858 2.28542,4.39287 4.49983,7.60533 4.92091,7.13879 0.42107,-0.46654 1.78314,-4.67326 3.02682,-9.34826 z M 292.70542,653.4916 c -1.16466,-0.48853 -1.06911,-10.54978 0.64974,-68.41488 1.08885,-36.65606 0.97479,-45.91677 -0.73586,-59.74483 -0.75287,-6.08587 0.44351,-8.25517 4.55277,-8.25517 3.22455,0 6.34317,3.05959 8.5832,8.42074 1.48489,3.55385 1.52792,9.22225 0.49334,64.98636 -0.6234,33.60109 -1.31985,61.6554 -1.54768,62.3429 -0.39387,1.18859 -9.53859,1.69545 -11.99551,0.66488 z M 743.72394,442.66569 c -11.86412,-2.94454 -20.85625,-9.85443 -25.37939,-19.50249 -2.14782,-4.5814 -2.61647,-7.02579 -2.60486,-13.58648 0.016,-9.01575 2.12597,-14.93827 7.08733,-19.89312 10.07296,-10.05976 28.66929,-8.40957 36.87984,3.27263 2.79833,3.98153 3.01708,4.92624 3.01708,13.02966 0,7.93061 -0.26291,9.13417 -2.8489,13.04187 -2.14672,3.24391 -4.30972,4.95063 -8.77567,6.92445 -8.36685,3.69792 -7.66983,5.53624 2.24236,5.914 18.46634,0.70375 30.45724,-10.48714 31.68178,-29.56804 0.57069,-8.89252 -1.64062,-40.97048 -3.00328,-43.56659 -0.77123,-1.46933 -1.66715,-1.71407 -4.39877,-1.20161 -4.89529,0.91836 -22.24658,-1.18626 -29.62905,-3.59385 -20.10207,-6.55574 -35.31486,-19.63314 -44.62305,-38.3594 -6.01284,-12.09666 -7.60366,-19.01164 -7.47676,-32.5 0.0875,-9.30353 0.61187,-13.19095 2.7453,-20.35322 8.33905,-27.99562 27.06575,-50.43142 61.38935,-73.54842 l 6.30332,-4.24529 -0.75109,-7.17654 c -0.41309,-3.94709 -0.75083,-15.50153 -0.75054,-25.67653 4.5e-4,-15.34191 0.37829,-20.24697 2.21338,-28.73367 6.75124,-31.222376 20.81177,-51.266331 35.96255,-51.266331 6.3524,0 10.3355,4.062975 13.99939,14.280127 4.4537,12.419642 5.73491,20.602744 5.59256,35.719874 -0.15399,16.35311 -2.73147,29.95888 -8.43009,44.5 -6.52111,16.63987 -15.44326,29.02837 -28.5855,39.69126 -7.51912,6.1006 -7.41189,5.4437 -4.31914,26.45928 2.21414,15.04533 2.89595,16.34946 8.54764,16.34946 9.18374,0 24.70112,7.91117 32.01418,16.32167 9.58959,11.02866 14.70818,29.01309 12.47739,43.83991 -2.67398,17.77243 -16.24629,34.25274 -36.82736,44.71799 -2.3375,1.18859 -4.23663,2.48943 -4.22029,2.89075 0.0163,0.40133 0.67797,7.25468 1.47029,15.22968 3.19492,32.15826 1.34988,45.13925 -8.19624,57.66566 -8.46333,11.10558 -27.26076,16.7809 -42.80376,12.92331 z m 36.98422,-97.56344 c 1.42948,-2.31295 -4.24055,-65.95486 -6.05069,-67.91457 -1.08562,-1.17532 -2.10237,-0.92933 -6.60828,1.59879 -14.09355,7.90742 -18.97166,24.6032 -12.02155,41.14495 1.65117,3.92991 2.76144,7.1453 2.46725,7.1453 -3.30985,0 -13.83292,-10.44981 -16.78257,-16.66574 -4.68516,-9.87323 -4.22133,-25.22803 1.09001,-36.08401 3.75561,-7.67618 13.29386,-16.95301 21.64245,-21.04927 3.69646,-1.81367 6.94549,-3.66109 7.22007,-4.10537 0.27457,-0.44427 -0.15839,-6.38503 -0.96215,-13.20169 -0.80376,-6.81666 -1.46529,-12.95642 -1.47007,-13.64392 -0.0258,-3.71551 -7.7508,1.10559 -21.85613,13.64027 -24.25777,21.55661 -35.55217,49.23471 -29.57043,72.46538 2.28363,8.86872 6.45317,15.49205 14.57712,23.15576 7.76859,7.3285 14.29155,10.8446 24.04938,12.96346 7.36164,1.59853 23.40308,1.96241 24.27559,0.55066 z m 21.42067,-8.59796 c 10.06248,-9.31608 14.34725,-21.41624 12.11758,-34.21994 -1.29504,-7.43665 -3.67759,-12.6063 -8.16576,-17.71805 -5.07985,-5.78562 -15.93025,-11.29823 -18.77619,-9.53935 -0.91081,0.56291 -0.83191,4.08924 0.33877,15.14179 0.83934,7.92439 1.99742,20.93298 2.57349,28.90798 1.56063,21.60473 1.80398,23 4.01149,23 1.03495,0 4.59023,-2.50759 7.90062,-5.57243 z M 786.65102,166.55311 c 14.55015,-14.69249 22.42809,-30.07098 23.32999,-45.54233 0.4177,-7.16531 0.16666,-9.31806 -1.53532,-13.16566 -3.93682,-8.899841 -9.63441,-9.813789 -16.45857,-2.64011 -10.11917,10.63746 -15.75114,30.69408 -15.75916,56.12171 -0.003,10.62345 0.24419,12.75 1.48416,12.75 0.81849,0 4.841,-3.38563 8.9389,-7.52361 z m 145.56645,137.64923 c -10.92323,-3.58402 -16.36269,-10.94175 -16.35717,-22.12562 0.004,-7.21983 2.12942,-12.49306 7,-17.36364 6.32306,-6.32305 14.49701,-8.34846 25.12969,-6.22685 l 4.26605,0.85124 -0.26605,-27.80146 -0.26605,-27.80147 -24.78976,-13.92064 c -13.92234,-7.81807 -25.4299,-13.675 -26.25,-13.3603 -1.24871,0.47918 -1.46105,6.75761 -1.46582,43.34173 -0.003,26.03215 -0.40544,44.22108 -1.02693,46.4587 -1.76823,6.36635 -6.99637,12.99811 -12.4408,15.78079 -4.11729,2.10439 -6.36836,2.5419 -13.07842,2.5419 -7.25001,0 -8.62434,-0.31702 -13.02669,-3.00487 -3.68651,-2.25079 -5.63164,-4.38386 -7.75108,-8.5 -2.51357,-4.88158 -2.7823,-6.29316 -2.40677,-12.64247 0.33698,-5.6976 1.01232,-8.09069 3.32949,-11.79821 5.23111,-8.36985 15.07196,-12.86965 24.21218,-11.0712 2.03203,0.39983 4.8196,0.79216 6.1946,0.87186 l 2.5,0.14489 0.5,-50 0.5,-50 2.60697,-0.30262 c 1.87419,-0.21756 12.69587,5.34585 38.5,19.79279 19.74117,11.05248 36.47669,20.86366 37.19004,21.80262 1.03264,1.35922 1.23647,12.1028 1,52.70721 -0.29588,50.80648 -0.30574,51.01897 -2.59823,56 -2.78333,6.04749 -7.32793,10.96914 -12.66937,13.72049 -4.3104,2.22026 -14.41132,3.25845 -18.53588,1.90513 z"
         id="path119" /></g></g></svg>
